<svg id="svg" version="1.1" xmlns="http://www.w3.org/2000/svg" xmlns:xlink="http://www.w3.org/1999/xlink" width="400" height="118.09523809523809" viewBox="0, 0, 400,118.09523809523809"><g id="svgg"><path id="path0" d="M73.246 21.173 C 73.192 21.261,73.182 21.390,73.225 21.460 C 73.463 21.844,72.847 22.155,71.767 22.195 C 71.149 22.217,70.613 22.285,70.576 22.346 C 70.538 22.406,70.333 22.422,70.119 22.381 C 69.645 22.290,69.260 22.701,69.381 23.166 C 69.467 23.493,69.116 23.612,68.362 23.509 C 68.240 23.493,68.103 23.623,68.058 23.797 C 68.012 23.972,67.522 24.404,66.969 24.756 C 66.417 25.108,65.885 25.570,65.789 25.781 C 65.692 25.993,65.550 26.167,65.473 26.167 C 65.396 26.167,65.352 26.224,65.375 26.295 C 65.398 26.365,65.248 26.638,65.042 26.901 C 64.835 27.163,64.667 27.317,64.667 27.242 C 64.667 27.166,64.835 26.923,65.042 26.701 C 65.398 26.317,65.400 26.300,65.083 26.357 C 64.900 26.390,64.637 26.659,64.500 26.955 C 64.329 27.322,64.133 27.494,63.879 27.496 C 63.292 27.502,62.894 28.290,62.845 29.542 C 62.838 29.721,62.702 29.833,62.490 29.833 C 62.301 29.833,62.188 29.900,62.238 29.981 C 62.289 30.062,62.201 30.119,62.044 30.106 C 61.637 30.074,61.536 32.145,61.915 32.725 C 62.058 32.942,62.280 33.624,62.409 34.241 C 62.678 35.526,63.481 36.970,64.333 37.699 C 64.654 37.973,65.104 38.363,65.333 38.565 C 66.177 39.310,67.771 40.328,68.489 40.580 C 68.895 40.723,69.464 41.020,69.753 41.241 C 70.042 41.462,70.699 41.752,71.213 41.886 C 71.727 42.020,72.358 42.278,72.615 42.460 C 72.873 42.641,73.608 42.919,74.250 43.078 C 74.892 43.237,75.717 43.498,76.083 43.659 C 77.331 44.206,77.318 44.208,76.974 43.533 C 75.923 41.472,79.094 38.968,81.417 40.025 C 84.308 41.341,85.322 45.445,82.773 45.514 L 82.250 45.529 82.750 45.676 C 83.025 45.757,83.539 45.985,83.893 46.182 C 84.297 46.408,85.532 46.718,87.226 47.020 C 88.706 47.283,90.667 47.643,91.583 47.820 C 97.590 48.982,103.917 48.091,105.341 45.885 C 105.646 45.413,105.879 45.239,106.250 45.206 C 107.659 45.082,107.883 44.998,107.608 44.694 C 107.403 44.467,107.343 43.902,107.317 41.954 C 107.299 40.604,107.239 39.500,107.184 39.500 C 107.128 39.500,107.083 39.313,107.083 39.083 C 107.083 38.854,107.140 38.667,107.208 38.667 C 107.277 38.667,107.333 38.475,107.333 38.240 C 107.333 38.006,107.269 37.853,107.190 37.902 C 107.112 37.951,107.069 37.713,107.096 37.374 C 107.146 36.749,106.946 36.329,106.605 36.338 C 106.501 36.341,106.548 36.420,106.708 36.513 C 106.869 36.607,107.000 36.764,107.000 36.862 C 107.000 36.987,106.933 36.985,106.778 36.857 C 106.604 36.712,106.563 36.752,106.589 37.045 C 106.636 37.593,106.499 37.727,106.239 37.385 C 105.970 37.030,105.930 36.770,106.167 36.917 C 106.258 36.973,106.333 36.898,106.333 36.750 C 106.333 36.602,106.258 36.527,106.167 36.583 C 106.065 36.646,106.000 36.395,106.000 35.940 C 106.000 34.889,105.870 34.599,105.522 34.871 C 105.280 35.060,105.275 35.051,105.477 34.794 C 105.602 34.634,105.771 34.545,105.852 34.595 C 106.043 34.713,106.040 34.154,105.848 33.851 C 105.764 33.719,105.581 33.664,105.425 33.724 C 105.264 33.785,105.192 33.761,105.251 33.666 C 105.306 33.576,105.163 33.255,104.932 32.952 C 104.668 32.606,104.546 32.276,104.603 32.059 C 104.718 31.618,104.271 31.167,103.719 31.167 C 103.366 31.167,103.310 31.106,103.389 30.806 C 103.518 30.313,103.217 29.795,102.865 29.905 C 102.428 30.041,102.131 29.758,102.108 29.183 C 102.089 28.709,102.024 28.648,101.456 28.557 C 100.956 28.477,100.844 28.396,100.916 28.168 C 101.084 27.641,100.832 27.333,100.232 27.333 C 99.666 27.333,99.554 27.147,99.654 26.375 C 99.669 26.260,99.622 26.161,99.549 26.155 C 98.372 26.053,98.268 25.990,98.258 25.369 C 98.250 24.923,98.206 24.896,97.393 24.853 C 97.161 24.840,97.000 24.689,96.933 24.421 C 96.782 23.821,96.148 23.541,94.872 23.512 C 94.383 23.501,94.337 23.459,94.427 23.102 C 94.595 22.431,94.412 22.376,91.500 22.232 C 90.446 22.180,89.572 22.126,89.558 22.111 C 89.544 22.096,89.507 21.896,89.475 21.667 C 89.443 21.438,89.342 21.194,89.250 21.126 C 88.995 20.937,73.364 20.982,73.246 21.173 M66.667 25.657 C 66.667 25.853,66.342 26.064,66.222 25.944 C 66.103 25.825,66.313 25.500,66.510 25.500 C 66.596 25.500,66.667 25.571,66.667 25.657 M92.197 28.942 C 92.254 29.416,92.475 29.588,93.228 29.748 C 93.914 29.894,93.710 29.953,92.801 29.871 C 92.063 29.805,92.016 29.772,91.968 29.276 C 91.926 28.845,91.828 28.733,91.417 28.645 C 90.928 28.542,90.930 28.539,91.531 28.520 C 92.076 28.502,92.150 28.549,92.197 28.942 M95.302 31.032 C 95.815 31.075,95.925 31.152,95.970 31.500 C 96.000 31.729,96.145 32.010,96.294 32.125 C 96.535 32.311,96.526 32.333,96.209 32.333 C 95.931 32.333,95.843 32.217,95.802 31.792 C 95.755 31.297,95.696 31.245,95.125 31.198 C 94.602 31.155,94.503 31.087,94.519 30.782 C 94.533 30.514,94.559 30.492,94.613 30.699 C 94.662 30.886,94.894 30.998,95.302 31.032 M104.300 31.533 C 104.624 31.857,104.528 32.077,104.195 31.775 C 104.027 31.624,103.839 31.549,103.778 31.611 C 103.717 31.672,103.667 31.635,103.667 31.528 C 103.667 31.275,104.045 31.278,104.300 31.533 M49.839 38.577 C 49.390 39.118,49.426 40.097,49.908 40.436 C 50.153 40.609,50.567 40.919,50.826 41.125 C 51.559 41.707,52.262 41.409,52.573 40.383 C 52.951 39.134,50.642 37.609,49.839 38.577 M65.083 50.000 C 64.648 50.481,64.568 51.529,64.942 51.848 C 65.994 52.744,67.137 52.764,67.819 51.898 L 68.163 51.460 67.649 50.810 C 66.844 49.795,65.619 49.408,65.083 50.000 M54.929 52.660 C 54.624 52.769,54.623 52.781,54.911 52.891 C 55.242 53.019,55.401 52.942,55.309 52.699 C 55.277 52.614,55.105 52.597,54.929 52.660 M56.333 53.738 C 56.333 53.907,56.650 54.162,57.145 54.392 C 57.592 54.598,58.187 54.961,58.467 55.196 C 58.769 55.451,59.295 55.673,59.760 55.743 C 60.304 55.824,60.677 56.003,60.980 56.326 C 61.224 56.586,61.822 56.918,62.333 57.078 C 62.837 57.236,63.440 57.497,63.671 57.660 C 63.903 57.822,64.578 58.128,65.171 58.338 C 65.765 58.549,66.366 58.820,66.508 58.940 C 66.860 59.237,67.921 59.595,68.861 59.734 C 69.289 59.798,69.734 59.963,69.849 60.102 C 70.435 60.808,71.714 61.119,72.167 60.666 C 72.890 59.943,71.798 58.935,69.642 58.338 C 69.004 58.161,68.229 57.860,67.920 57.669 C 67.610 57.477,66.869 57.219,66.273 57.094 C 65.668 56.967,64.945 56.683,64.636 56.450 C 64.087 56.035,63.316 55.768,62.130 55.583 C 61.788 55.530,61.444 55.371,61.365 55.230 C 61.287 55.089,60.782 54.828,60.244 54.651 C 59.706 54.473,59.091 54.164,58.878 53.963 C 58.357 53.474,56.333 53.295,56.333 53.738 M111.750 57.249 C 111.658 57.279,111.384 57.348,111.140 57.402 C 110.837 57.468,110.563 57.737,110.278 58.246 L 109.861 58.993 110.360 59.413 C 111.064 60.006,112.606 59.895,113.202 59.207 C 113.943 58.354,112.851 56.881,111.750 57.249 M55.579 58.375 C 55.018 58.975,54.924 59.177,54.968 59.695 L 55.019 60.306 56.218 60.500 C 57.954 60.781,58.572 60.961,59.027 61.319 C 59.249 61.493,59.896 61.728,60.464 61.840 C 61.127 61.970,61.658 62.191,61.943 62.456 C 62.188 62.683,62.707 63.005,63.096 63.172 C 63.485 63.339,63.850 63.623,63.907 63.804 C 63.965 63.985,64.201 64.181,64.431 64.239 C 64.663 64.297,65.001 64.599,65.188 64.915 C 65.373 65.228,65.664 65.530,65.835 65.584 C 66.006 65.638,66.231 65.940,66.335 66.255 C 66.439 66.570,66.738 66.980,66.999 67.166 C 67.507 67.528,67.833 68.571,67.833 69.835 C 67.833 70.304,67.945 70.594,68.231 70.868 C 69.322 71.917,69.532 76.667,68.487 76.667 C 68.165 76.667,68.000 76.752,68.000 76.917 C 68.000 77.054,68.094 77.168,68.208 77.169 C 68.347 77.171,68.333 77.226,68.167 77.333 C 67.970 77.460,67.966 77.495,68.145 77.497 C 68.329 77.499,68.333 77.549,68.169 77.747 C 67.973 77.984,68.355 78.263,69.094 78.423 C 69.192 78.444,69.848 78.728,70.553 79.053 C 72.133 79.784,72.234 79.707,70.708 78.936 C 69.894 78.524,69.706 78.373,70.026 78.392 C 70.269 78.405,70.425 78.486,70.373 78.570 C 70.321 78.655,70.406 78.674,70.565 78.614 C 70.757 78.540,70.812 78.567,70.731 78.697 C 70.651 78.827,70.705 78.854,70.898 78.780 C 71.091 78.706,71.145 78.733,71.065 78.864 C 70.984 78.994,71.039 79.021,71.231 78.947 C 71.401 78.882,71.476 78.904,71.415 79.002 C 71.359 79.093,71.393 79.167,71.490 79.167 C 71.587 79.167,71.667 79.012,71.667 78.823 C 71.667 78.635,71.593 78.526,71.502 78.582 C 71.403 78.643,71.382 78.564,71.450 78.384 C 71.552 78.110,71.534 78.106,71.249 78.333 C 70.998 78.534,70.964 78.536,71.079 78.347 C 71.187 78.168,71.152 78.137,70.935 78.220 C 70.743 78.294,70.688 78.267,70.769 78.136 C 70.851 78.003,70.791 77.981,70.574 78.064 C 70.401 78.130,70.313 78.131,70.379 78.066 C 70.444 78.001,70.404 77.834,70.290 77.696 C 70.110 77.478,70.131 77.471,70.458 77.645 C 70.665 77.755,70.836 77.786,70.839 77.714 C 70.842 77.642,70.954 77.729,71.089 77.907 C 71.223 78.085,71.333 78.169,71.333 78.095 C 71.333 78.020,71.446 78.053,71.583 78.167 C 71.804 78.350,71.833 78.076,71.833 75.859 C 71.833 74.475,71.914 71.478,72.012 69.199 C 72.243 63.820,72.308 64.051,70.408 63.501 C 69.588 63.264,68.729 62.947,68.500 62.796 C 68.271 62.645,67.708 62.433,67.250 62.324 C 66.792 62.215,66.154 61.952,65.833 61.739 C 65.512 61.527,64.711 61.209,64.053 61.034 C 63.390 60.857,62.630 60.525,62.349 60.289 C 62.070 60.054,61.603 59.809,61.312 59.745 C 61.022 59.682,59.915 59.188,58.852 58.648 C 56.547 57.477,56.429 57.467,55.579 58.375 M87.304 63.607 C 85.851 63.865,86.398 64.664,88.278 65.028 C 89.088 65.185,90.237 65.430,90.833 65.571 C 93.565 66.222,97.589 66.063,97.296 65.316 C 96.986 64.522,89.428 63.230,87.304 63.607 M111.344 63.856 C 110.275 64.033,110.278 64.031,110.543 64.377 C 110.768 64.670,113.569 64.488,113.906 64.158 C 114.250 63.820,112.678 63.635,111.344 63.856 M85.394 67.687 C 85.057 68.113,85.013 69.201,85.257 71.053 C 85.391 72.066,85.500 72.949,85.500 73.013 C 85.500 73.340,88.144 75.833,88.489 75.833 C 88.699 75.833,89.088 76.071,89.365 76.368 C 90.091 77.145,92.440 77.193,93.325 76.450 C 93.630 76.193,94.099 75.939,94.366 75.885 C 94.665 75.825,95.341 75.312,96.121 74.552 L 97.390 73.315 97.604 71.872 C 97.817 70.428,97.755 69.074,97.467 68.896 C 97.383 68.845,96.213 68.733,94.866 68.649 C 92.209 68.484,89.076 68.084,88.389 67.823 C 87.596 67.521,85.597 67.431,85.394 67.687 M48.527 71.373 C 47.977 71.923,49.973 73.827,51.352 74.068 C 51.683 74.126,52.089 74.322,52.254 74.505 C 52.580 74.865,53.767 75.289,53.946 75.109 C 54.099 74.956,53.335 74.171,53.013 74.149 C 52.868 74.140,53.050 74.039,53.417 73.926 L 54.083 73.720 53.446 73.600 C 53.096 73.534,52.684 73.446,52.530 73.404 C 52.376 73.363,52.475 73.444,52.750 73.585 L 53.250 73.842 52.667 73.738 C 51.948 73.610,51.069 73.112,51.123 72.863 C 51.146 72.756,51.048 72.723,50.891 72.783 C 50.559 72.910,50.860 73.179,51.917 73.696 L 52.583 74.022 51.834 73.938 C 50.847 73.827,50.136 73.114,50.618 72.719 C 50.863 72.517,50.868 72.488,50.647 72.556 C 50.435 72.622,50.385 72.535,50.418 72.156 C 50.440 71.890,50.392 71.714,50.310 71.764 C 50.228 71.815,50.204 71.926,50.257 72.012 C 50.411 72.261,50.060 72.190,49.843 71.928 C 49.734 71.797,49.500 71.718,49.323 71.752 C 49.129 71.789,49.000 71.722,49.000 71.584 C 49.000 71.256,48.754 71.146,48.527 71.373 M50.028 72.667 C 50.135 72.667,50.175 72.714,50.116 72.773 C 49.983 72.906,49.167 72.382,49.167 72.163 C 49.167 72.073,49.317 72.150,49.500 72.333 C 49.683 72.517,49.921 72.667,50.028 72.667 M69.243 79.678 C 69.178 79.783,68.846 79.821,68.441 79.770 C 68.061 79.723,67.900 79.728,68.083 79.781 L 68.417 79.878 68.083 80.024 C 67.846 80.128,67.942 80.149,68.417 80.095 L 69.083 80.020 68.417 80.247 C 67.998 80.390,67.880 80.479,68.099 80.487 C 68.291 80.494,68.591 80.658,68.765 80.850 C 69.209 81.341,69.900 81.669,70.450 81.652 L 70.917 81.637 70.379 81.481 C 70.083 81.396,69.758 81.171,69.657 80.982 C 69.414 80.528,69.588 80.377,69.963 80.717 C 70.128 80.866,70.551 81.108,70.903 81.255 C 71.798 81.629,72.042 81.318,71.219 80.852 C 70.629 80.518,70.611 80.516,70.977 80.829 C 71.222 81.039,71.283 81.167,71.139 81.167 C 70.797 81.167,70.146 80.668,70.256 80.491 C 70.308 80.406,70.223 80.386,70.065 80.447 C 69.871 80.521,69.817 80.494,69.899 80.362 C 69.971 80.246,69.918 80.167,69.770 80.167 C 69.632 80.167,69.473 80.242,69.417 80.333 C 69.360 80.425,69.149 80.491,68.948 80.481 C 68.611 80.463,68.608 80.455,68.917 80.381 C 69.355 80.276,69.644 80.002,69.325 79.995 C 69.149 79.991,69.172 79.923,69.407 79.745 C 69.585 79.610,69.645 79.500,69.542 79.500 C 69.438 79.500,69.303 79.580,69.243 79.678 M85.667 86.867 C 85.667 87.217,85.934 87.403,86.905 87.726 C 87.859 88.044,88.012 88.062,87.667 87.817 C 87.476 87.682,87.535 87.663,87.917 87.739 C 88.233 87.802,88.029 87.648,87.363 87.321 C 86.783 87.036,86.266 86.845,86.213 86.898 C 86.161 86.950,86.448 87.139,86.851 87.318 C 87.254 87.497,87.485 87.648,87.364 87.655 C 87.069 87.671,86.499 87.367,86.042 86.950 C 85.738 86.674,85.667 86.658,85.667 86.867 M85.667 87.730 C 85.667 87.928,85.812 87.995,86.208 87.981 C 86.564 87.968,86.636 87.933,86.417 87.879 C 86.233 87.834,85.990 87.721,85.875 87.628 C 85.724 87.506,85.667 87.534,85.667 87.730 M87.034 88.113 C 87.190 88.154,87.364 88.333,87.420 88.511 C 87.557 88.941,87.903 89.104,88.994 89.251 C 89.618 89.336,90.090 89.524,90.497 89.851 C 91.658 90.784,95.667 91.015,95.667 90.149 C 95.667 90.054,95.549 90.094,95.405 90.238 C 95.095 90.548,93.289 90.601,92.553 90.322 C 91.553 89.944,91.127 89.172,91.917 89.172 C 92.008 89.172,91.994 89.229,91.885 89.298 C 91.462 89.567,92.758 90.193,93.865 90.255 C 94.843 90.309,94.858 90.305,94.074 90.197 C 93.174 90.072,92.258 89.590,92.421 89.326 C 92.475 89.238,92.431 89.167,92.323 89.167 C 92.183 89.167,92.193 89.081,92.355 88.875 C 92.563 88.610,92.557 88.604,92.286 88.816 C 91.956 89.076,90.947 88.870,90.194 88.389 C 89.980 88.252,89.766 88.178,89.720 88.225 C 89.673 88.271,89.924 88.467,90.276 88.660 C 91.065 89.092,90.374 88.937,89.465 88.479 C 89.125 88.307,88.787 88.168,88.715 88.169 C 88.535 88.171,89.853 88.917,90.440 89.145 C 90.869 89.311,90.842 89.320,90.167 89.234 C 88.889 89.073,88.233 88.850,87.766 88.417 C 87.519 88.188,87.189 88.009,87.033 88.019 C 86.768 88.037,86.768 88.043,87.034 88.113 M95.600 88.294 C 95.701 88.362,95.815 88.516,95.854 88.638 C 95.906 88.799,96.010 88.766,96.238 88.513 C 96.550 88.169,96.548 88.167,95.984 88.169 C 95.672 88.171,95.499 88.227,95.600 88.294 M94.917 88.519 C 95.275 88.736,95.511 89.054,95.706 89.583 C 95.780 89.783,95.795 89.685,95.745 89.339 C 95.648 88.673,95.570 88.578,95.000 88.427 C 94.616 88.326,94.609 88.333,94.917 88.519 M92.837 89.259 L 92.424 89.485 93.040 89.743 C 93.379 89.884,93.865 89.992,94.120 89.983 C 94.582 89.966,94.582 89.966,94.060 89.841 C 92.974 89.582,92.873 89.508,93.240 89.238 C 93.642 88.942,93.392 88.955,92.837 89.259 " stroke="none" fill="#26e0c9" fill-rule="evenodd"></path><path id="path1" d="M56.982 32.542 C 56.969 32.610,56.949 32.754,56.938 32.861 C 56.926 32.968,56.812 33.090,56.685 33.133 C 56.527 33.186,56.496 33.137,56.587 32.980 C 56.660 32.853,56.521 32.932,56.277 33.154 C 55.746 33.638,55.754 33.590,56.198 33.623 C 56.401 33.639,56.669 33.499,56.803 33.308 C 56.989 33.042,57.073 33.015,57.179 33.187 C 57.415 33.569,57.454 33.269,57.224 32.833 C 57.104 32.604,56.994 32.473,56.982 32.542 M52.333 33.869 C 52.333 34.053,52.793 34.033,52.910 33.843 C 52.964 33.757,52.856 33.698,52.670 33.712 C 52.485 33.726,52.333 33.797,52.333 33.869 M51.667 34.010 C 51.667 34.107,51.738 34.142,51.825 34.089 C 51.912 34.035,52.058 34.130,52.149 34.301 C 52.337 34.651,51.854 34.774,51.630 34.433 C 51.464 34.181,50.936 34.520,50.856 34.929 C 50.806 35.182,50.839 35.203,51.034 35.041 C 51.165 34.932,51.455 34.851,51.678 34.862 C 52.359 34.893,52.500 34.844,52.500 34.571 C 52.500 34.272,52.111 33.833,51.845 33.833 C 51.747 33.833,51.667 33.913,51.667 34.010 M48.263 35.187 C 48.299 35.245,48.554 35.274,48.831 35.250 C 49.107 35.227,49.333 35.276,49.333 35.360 C 49.333 35.445,49.003 35.492,48.599 35.465 C 48.196 35.438,47.897 35.365,47.936 35.302 C 47.975 35.239,47.856 35.198,47.670 35.212 C 47.305 35.240,47.229 35.416,47.508 35.588 C 47.626 35.661,47.612 35.783,47.466 35.960 C 47.279 36.190,47.298 36.212,47.617 36.130 C 47.824 36.077,48.012 36.119,48.048 36.226 C 48.093 36.359,48.298 36.329,48.723 36.128 C 49.165 35.918,49.336 35.895,49.344 36.044 C 49.350 36.157,49.422 36.081,49.505 35.875 C 49.744 35.280,49.554 35.049,48.840 35.066 C 48.487 35.074,48.227 35.129,48.263 35.187 M46.944 35.444 C 46.883 35.506,46.833 35.693,46.833 35.861 C 46.833 36.029,46.758 36.176,46.667 36.188 C 46.575 36.199,46.425 36.227,46.333 36.250 C 46.242 36.273,46.092 36.301,46.000 36.313 C 45.908 36.324,45.833 36.413,45.833 36.510 C 45.833 36.607,45.919 36.633,46.024 36.568 C 46.129 36.504,46.436 36.457,46.707 36.465 C 47.115 36.476,47.185 36.423,47.116 36.156 C 47.069 35.979,47.111 35.785,47.208 35.724 C 47.319 35.656,47.335 35.696,47.250 35.833 C 47.159 35.981,47.180 36.011,47.316 35.928 C 47.469 35.833,47.470 35.749,47.321 35.568 C 47.096 35.298,47.092 35.296,46.944 35.444 M44.833 36.380 C 44.833 36.457,44.758 36.473,44.667 36.417 C 44.575 36.360,44.500 36.398,44.500 36.500 C 44.500 36.602,44.433 36.645,44.352 36.595 C 44.271 36.545,44.215 36.634,44.227 36.793 C 44.240 36.953,44.156 37.065,44.042 37.042 C 43.927 37.019,43.833 37.112,43.833 37.250 C 43.833 37.406,43.676 37.500,43.417 37.500 C 43.188 37.500,43.000 37.568,43.000 37.651 C 43.000 37.734,43.150 37.763,43.333 37.715 C 43.519 37.666,43.667 37.710,43.667 37.813 C 43.667 38.017,43.214 37.989,42.849 37.761 C 42.694 37.664,42.653 37.676,42.727 37.796 C 42.788 37.896,42.763 38.024,42.669 38.082 C 42.576 38.139,42.509 38.388,42.519 38.635 C 42.532 38.921,42.566 38.977,42.615 38.790 C 42.660 38.618,42.773 38.545,42.888 38.613 C 42.997 38.679,42.982 38.606,42.855 38.449 C 42.659 38.207,42.662 38.167,42.878 38.167 C 43.017 38.167,43.174 38.279,43.227 38.417 C 43.280 38.554,43.456 38.664,43.620 38.661 C 43.890 38.657,43.886 38.632,43.583 38.395 C 43.266 38.147,43.276 38.140,43.790 38.247 C 44.437 38.381,45.772 37.788,45.928 37.297 C 46.046 36.925,45.709 36.456,45.439 36.617 C 45.335 36.680,45.353 36.604,45.479 36.449 C 45.683 36.197,45.661 36.171,45.270 36.203 C 45.030 36.223,44.833 36.302,44.833 36.380 M54.333 37.424 C 52.245 37.877,51.550 38.538,52.673 39.003 C 53.926 39.522,54.129 41.231,52.958 41.395 C 51.172 41.646,50.245 41.218,49.311 39.712 C 48.867 38.996,47.913 38.721,46.779 38.982 C 46.337 39.083,45.746 39.167,45.467 39.167 C 45.011 39.167,44.983 39.195,45.188 39.449 C 45.322 39.613,45.334 39.681,45.218 39.612 C 45.096 39.538,45.017 39.605,45.012 39.788 C 44.967 41.432,44.106 42.191,42.963 41.595 L 42.509 41.358 42.721 41.877 C 43.029 42.631,43.600 42.727,44.965 42.255 C 47.095 41.518,52.943 41.565,55.667 42.340 C 56.262 42.510,57.531 42.765,58.485 42.907 C 59.656 43.082,60.442 43.296,60.905 43.568 C 61.283 43.789,62.028 44.084,62.562 44.223 C 63.095 44.363,63.806 44.655,64.141 44.873 C 64.476 45.091,64.997 45.369,65.298 45.491 C 66.310 45.900,66.341 46.737,65.396 48.129 C 65.178 48.450,64.999 48.871,64.998 49.065 C 64.996 49.258,64.946 49.604,64.885 49.833 C 64.787 50.207,64.804 50.227,65.054 50.021 C 65.208 49.895,65.333 49.697,65.333 49.580 C 65.333 49.014,66.722 49.210,67.366 49.867 C 67.708 50.215,68.063 50.500,68.156 50.500 C 68.516 50.500,68.782 51.395,68.633 52.104 C 68.399 53.220,68.049 53.415,66.270 53.425 C 64.805 53.434,64.242 53.550,64.403 53.811 C 64.444 53.878,64.409 54.042,64.325 54.175 C 64.220 54.341,64.171 54.157,64.169 53.590 C 64.167 52.888,64.235 52.708,64.620 52.401 C 65.012 52.088,65.043 52.003,64.849 51.768 C 64.704 51.594,64.658 51.285,64.720 50.903 L 64.816 50.309 64.355 50.890 C 64.101 51.209,63.800 51.885,63.687 52.392 C 63.383 53.751,62.020 55.405,61.480 55.071 C 61.399 55.021,61.333 55.062,61.333 55.161 C 61.333 55.457,62.152 55.679,63.273 55.688 C 64.286 55.695,64.337 55.716,64.676 56.265 C 64.886 56.605,65.206 56.871,65.472 56.927 C 66.968 57.238,67.474 57.394,67.950 57.687 C 68.243 57.868,69.004 58.161,69.642 58.338 C 70.279 58.514,71.062 58.813,71.381 59.001 C 72.150 59.455,72.167 59.399,72.167 56.328 C 72.167 52.630,72.271 52.538,77.000 52.085 C 79.702 51.826,81.911 51.562,82.598 51.415 C 82.817 51.368,83.044 51.091,83.210 50.670 L 83.473 50.000 87.112 50.002 C 90.203 50.004,90.900 50.051,91.750 50.318 C 92.662 50.604,95.589 50.977,99.125 51.259 C 99.881 51.319,100.500 51.417,100.500 51.477 C 100.500 51.537,100.432 51.822,100.349 52.111 C 100.203 52.621,100.216 52.639,100.808 52.749 C 101.516 52.882,101.814 53.094,102.007 53.603 C 102.094 53.830,102.352 54.014,102.686 54.088 C 103.516 54.270,106.569 57.485,107.024 58.656 C 107.111 58.880,107.317 59.157,107.482 59.273 C 107.647 59.388,107.918 59.843,108.084 60.283 C 108.251 60.723,108.560 61.312,108.772 61.592 C 108.983 61.872,109.276 62.622,109.423 63.259 C 109.569 63.896,109.785 64.567,109.903 64.750 C 110.021 64.933,110.174 65.457,110.242 65.914 C 110.310 66.372,110.483 66.972,110.627 67.248 C 110.771 67.524,110.950 67.975,111.025 68.250 C 111.137 68.663,111.146 68.634,111.074 68.083 C 111.027 67.717,110.943 66.854,110.888 66.167 C 110.833 65.479,110.716 64.776,110.627 64.604 C 110.539 64.432,110.445 64.103,110.420 63.872 C 110.395 63.641,110.258 63.388,110.117 63.309 C 109.948 63.214,109.819 62.787,109.741 62.061 C 109.619 60.922,109.274 60.333,108.727 60.333 C 108.262 60.333,108.526 57.801,109.237 55.431 C 109.881 53.288,109.966 52.586,109.599 52.446 C 109.470 52.396,109.318 52.142,109.260 51.881 C 109.203 51.620,108.934 51.071,108.662 50.661 C 108.390 50.252,108.168 49.860,108.167 49.790 C 108.167 49.721,107.942 49.353,107.667 48.974 C 107.392 48.594,107.167 48.203,107.167 48.105 C 107.167 48.007,106.926 47.721,106.632 47.470 L 106.097 47.014 105.894 47.497 C 105.772 47.787,105.415 48.121,105.004 48.331 C 104.626 48.524,104.278 48.784,104.230 48.909 C 104.121 49.193,103.473 49.448,102.500 49.588 C 102.087 49.647,101.175 49.839,100.472 50.015 C 98.868 50.415,97.577 50.415,95.250 50.014 C 94.242 49.841,92.704 49.649,91.833 49.589 C 88.538 49.362,86.712 49.143,85.583 48.840 C 84.942 48.667,83.854 48.436,83.167 48.326 C 82.479 48.217,81.459 47.956,80.899 47.747 C 80.340 47.538,79.349 47.284,78.698 47.183 C 77.472 46.993,76.772 46.758,76.323 46.387 C 76.180 46.268,75.430 46.054,74.656 45.911 C 73.883 45.767,73.044 45.502,72.792 45.321 C 72.541 45.139,71.795 44.869,71.136 44.720 C 70.325 44.537,69.818 44.320,69.567 44.050 C 69.239 43.696,69.075 43.656,68.140 43.700 L 67.083 43.750 66.908 44.665 C 66.798 45.238,66.693 45.477,66.627 45.304 C 66.569 45.153,66.254 44.933,65.928 44.815 C 65.601 44.696,65.333 44.510,65.333 44.401 C 65.333 44.129,65.013 44.028,63.735 43.897 C 62.800 43.801,62.619 43.729,62.495 43.402 C 62.282 42.844,61.807 42.656,60.280 42.530 C 58.959 42.420,58.915 42.403,58.865 41.971 C 58.837 41.725,58.705 41.435,58.573 41.325 C 58.170 40.991,58.437 39.251,59.082 38.003 C 59.234 37.709,59.318 37.429,59.269 37.380 C 59.086 37.197,55.218 37.232,54.333 37.424 M44.108 37.767 C 44.126 38.065,44.080 38.146,43.961 38.028 C 43.867 37.933,43.834 37.738,43.889 37.595 C 44.030 37.228,44.080 37.267,44.108 37.767 M73.917 43.155 C 74.375 43.318,75.125 43.639,75.583 43.869 C 76.042 44.098,76.636 44.339,76.905 44.403 C 77.173 44.468,77.854 44.737,78.418 45.001 C 78.986 45.266,80.143 45.600,81.013 45.749 C 81.877 45.897,82.863 46.162,83.206 46.338 C 83.825 46.657,85.540 47.011,86.333 46.983 C 86.563 46.975,86.256 46.870,85.651 46.750 C 85.047 46.629,84.185 46.340,83.735 46.108 C 83.285 45.875,82.267 45.573,81.473 45.437 C 80.679 45.300,79.742 45.042,79.390 44.863 C 79.038 44.684,78.188 44.371,77.500 44.168 C 76.813 43.965,76.173 43.736,76.079 43.660 C 75.908 43.521,73.450 42.823,73.211 42.846 C 73.141 42.852,73.458 42.991,73.917 43.155 M107.333 45.194 C 107.333 45.301,107.379 45.343,107.434 45.288 C 107.490 45.232,107.635 45.276,107.756 45.385 C 107.937 45.547,107.914 45.632,107.629 45.853 L 107.282 46.124 107.683 46.094 C 107.903 46.077,108.196 46.142,108.333 46.237 C 108.488 46.345,108.468 46.275,108.281 46.055 C 108.103 45.847,108.046 45.658,108.142 45.599 C 108.231 45.543,108.343 45.592,108.389 45.707 C 108.445 45.845,108.478 45.826,108.487 45.652 C 108.494 45.506,108.309 45.300,108.075 45.193 C 107.538 44.948,107.333 44.949,107.333 45.194 M49.542 52.353 C 48.650 52.611,48.912 52.658,50.644 52.553 C 53.438 52.382,53.914 52.754,51.659 53.346 C 50.992 53.522,50.402 53.709,50.348 53.763 C 50.213 53.898,50.197 55.334,50.332 55.251 C 50.391 55.214,50.407 55.405,50.368 55.675 C 50.319 56.009,50.368 56.173,50.523 56.186 C 50.648 56.196,50.825 56.223,50.917 56.244 C 51.008 56.265,51.177 56.294,51.292 56.308 C 51.419 56.324,51.500 56.591,51.500 57.000 C 51.500 57.367,51.575 57.667,51.667 57.667 C 51.758 57.667,51.833 57.754,51.833 57.860 C 51.833 58.432,52.883 59.000,53.939 59.000 C 55.138 59.000,56.995 57.631,56.100 57.406 C 55.625 57.287,55.408 56.920,55.092 55.701 C 54.654 54.011,54.701 53.833,55.583 53.833 C 55.996 53.833,56.333 53.758,56.333 53.667 C 56.333 53.575,56.465 53.494,56.625 53.487 C 56.785 53.480,56.442 53.334,55.862 53.163 C 55.281 52.992,54.719 52.784,54.612 52.700 C 53.993 52.218,50.772 51.998,49.542 52.353 M116.405 53.625 C 116.469 54.058,117.000 54.106,117.000 53.679 C 117.000 53.450,116.893 53.333,116.681 53.333 C 116.473 53.333,116.378 53.434,116.405 53.625 M115.530 54.214 C 115.432 54.331,115.279 54.621,115.189 54.857 C 115.079 55.147,114.859 55.320,114.511 55.389 C 113.632 55.565,113.531 56.097,114.065 57.739 C 114.585 59.337,114.505 59.688,113.542 60.037 C 113.244 60.145,113.000 60.291,113.000 60.361 C 113.000 60.431,112.775 60.745,112.500 61.058 C 111.805 61.850,111.782 62.819,112.458 62.864 C 113.346 62.923,113.888 62.822,114.078 62.563 C 114.218 62.371,115.809 61.667,116.102 61.667 C 116.198 61.667,116.833 62.887,116.833 63.070 C 116.833 63.190,116.991 63.489,117.184 63.734 C 117.426 64.042,117.515 64.351,117.471 64.729 C 117.430 65.075,117.479 65.278,117.603 65.278 C 118.017 65.278,117.670 63.035,117.152 62.366 C 116.988 62.154,116.726 61.592,116.569 61.116 C 116.413 60.640,116.117 60.079,115.911 59.871 C 115.706 59.663,115.450 59.144,115.343 58.718 C 115.235 58.292,114.952 57.609,114.712 57.201 L 114.277 56.458 115.039 55.771 C 115.825 55.061,116.358 54.000,115.928 54.000 C 115.807 54.000,115.628 54.096,115.530 54.214 M52.556 57.933 C 52.541 58.015,52.606 58.177,52.701 58.292 C 52.796 58.406,52.809 58.498,52.729 58.495 C 52.649 58.492,52.454 58.311,52.295 58.093 C 52.023 57.718,52.023 57.699,52.295 57.740 C 52.454 57.763,52.571 57.850,52.556 57.933 M65.505 58.663 C 65.212 58.845,65.407 59.107,65.932 59.239 C 66.493 59.380,67.167 59.821,67.167 60.048 C 67.167 60.419,67.760 60.851,68.610 61.098 C 70.743 61.718,69.422 62.366,66.917 61.928 C 66.733 61.896,66.216 61.674,65.767 61.435 C 65.318 61.196,64.793 61.005,64.600 61.012 C 64.370 61.019,64.474 61.105,64.906 61.264 C 65.266 61.396,65.690 61.621,65.848 61.764 C 66.006 61.907,66.574 62.137,67.109 62.276 C 67.645 62.415,68.308 62.666,68.583 62.834 C 68.858 63.002,69.744 63.325,70.552 63.552 L 72.022 63.965 72.190 63.524 C 72.428 62.899,72.204 60.783,71.911 60.896 C 71.559 61.031,70.550 60.687,70.041 60.259 C 69.776 60.036,69.173 59.789,68.660 59.694 C 67.607 59.499,66.856 59.233,66.500 58.930 C 66.131 58.616,65.748 58.513,65.505 58.663 M70.833 62.667 C 71.021 62.788,70.937 62.828,70.500 62.828 C 70.063 62.828,69.979 62.788,70.167 62.667 C 70.304 62.578,70.454 62.505,70.500 62.505 C 70.546 62.505,70.696 62.578,70.833 62.667 M92.417 66.096 C 92.692 66.217,93.292 66.369,93.750 66.434 L 94.583 66.553 93.917 66.674 C 93.260 66.792,91.242 67.017,90.917 67.008 C 90.456 66.995,90.003 66.873,89.459 66.614 C 88.738 66.273,87.387 66.000,86.412 66.000 C 85.659 66.000,85.500 66.164,85.500 66.936 C 85.500 67.402,85.491 67.398,87.167 67.643 C 87.854 67.743,88.942 67.935,89.583 68.069 C 90.608 68.283,92.154 68.439,96.357 68.750 C 97.702 68.850,97.830 68.632,97.408 66.961 L 97.145 65.917 94.531 65.897 C 92.237 65.879,91.978 65.903,92.417 66.096 " stroke="none" fill="#848fb6" fill-rule="evenodd"></path><path id="path2" d="M65.916 25.334 C 65.490 25.805,65.671 25.849,66.119 25.383 C 66.322 25.173,66.427 25.000,66.353 25.000 C 66.279 25.000,66.082 25.150,65.916 25.334 M66.243 25.678 C 66.183 25.776,66.173 25.896,66.222 25.944 C 66.342 26.064,66.667 25.853,66.667 25.657 C 66.667 25.444,66.379 25.458,66.243 25.678 M65.129 26.306 C 65.291 26.409,65.262 26.513,65.004 26.746 C 64.818 26.914,64.667 27.119,64.667 27.202 C 64.667 27.284,64.847 27.142,65.068 26.885 C 65.470 26.418,65.487 26.164,65.115 26.169 C 64.973 26.171,64.976 26.210,65.129 26.306 M103.958 31.282 C 103.798 31.323,103.667 31.440,103.667 31.540 C 103.667 31.640,103.717 31.672,103.778 31.611 C 103.839 31.549,104.018 31.615,104.174 31.757 C 104.429 31.988,104.469 31.988,104.557 31.759 C 104.614 31.609,104.571 31.520,104.452 31.544 C 104.341 31.565,104.269 31.490,104.292 31.375 C 104.315 31.260,104.315 31.175,104.292 31.186 C 104.269 31.197,104.119 31.240,103.958 31.282 M56.833 32.458 C 56.833 32.527,56.600 32.592,56.315 32.602 C 55.812 32.620,55.508 32.876,55.503 33.284 C 55.501 33.395,55.688 33.297,55.918 33.067 C 56.311 32.674,56.801 32.648,56.563 33.033 C 56.500 33.135,56.552 33.177,56.685 33.133 C 56.812 33.090,56.917 32.974,56.917 32.875 C 56.917 32.509,57.092 32.535,57.278 32.929 C 57.383 33.151,57.401 33.333,57.318 33.333 C 57.235 33.333,57.164 33.240,57.161 33.125 C 57.158 33.005,57.034 33.059,56.869 33.253 C 56.647 33.514,56.343 33.599,55.500 33.635 C 53.667 33.714,53.095 33.772,52.775 33.913 C 52.571 34.002,52.418 33.971,52.326 33.821 C 52.248 33.695,52.140 33.638,52.084 33.693 C 52.029 33.749,52.100 33.910,52.242 34.052 C 52.384 34.193,52.500 34.427,52.500 34.571 C 52.500 34.844,52.359 34.893,51.678 34.862 C 51.455 34.851,51.174 34.925,51.053 35.025 C 50.887 35.163,50.833 35.142,50.833 34.937 C 50.833 34.788,50.927 34.685,51.042 34.708 C 51.156 34.731,51.231 34.656,51.208 34.542 C 51.185 34.427,51.279 34.333,51.417 34.333 C 51.554 34.333,51.667 34.404,51.667 34.490 C 51.667 34.576,51.811 34.635,51.987 34.622 C 52.244 34.602,52.276 34.537,52.146 34.294 C 52.056 34.127,51.912 34.035,51.825 34.089 C 51.738 34.142,51.667 34.076,51.667 33.942 C 51.667 33.773,51.551 33.726,51.292 33.789 C 50.802 33.908,50.333 34.321,50.333 34.632 C 50.333 34.787,50.461 34.717,50.679 34.439 C 50.869 34.198,51.125 34.000,51.249 34.000 C 51.380 34.000,51.276 34.198,51.001 34.473 C 50.623 34.851,50.419 34.930,49.990 34.867 C 49.495 34.795,49.460 34.820,49.544 35.186 C 49.594 35.405,49.572 35.733,49.496 35.917 C 49.419 36.100,49.351 36.157,49.345 36.044 C 49.337 35.895,49.166 35.918,48.723 36.128 C 48.298 36.329,48.093 36.359,48.048 36.226 C 48.012 36.119,47.824 36.077,47.617 36.130 C 47.313 36.208,47.284 36.183,47.447 35.984 C 47.601 35.796,47.581 35.662,47.356 35.364 C 46.976 34.860,46.429 35.029,46.574 35.606 C 46.630 35.827,46.599 36.000,46.503 36.000 C 46.410 36.000,46.333 36.073,46.333 36.161 C 46.333 36.250,46.446 36.280,46.583 36.227 C 46.721 36.174,46.833 35.993,46.833 35.825 C 46.833 35.473,47.097 35.253,47.241 35.486 C 47.295 35.573,47.270 35.686,47.185 35.739 C 47.100 35.791,47.069 35.979,47.116 36.156 C 47.185 36.423,47.115 36.476,46.707 36.465 C 46.436 36.457,46.129 36.504,46.024 36.568 C 45.919 36.633,45.833 36.613,45.833 36.524 C 45.833 36.434,45.927 36.323,46.042 36.277 C 46.174 36.224,46.151 36.188,45.979 36.180 C 45.830 36.173,45.605 36.294,45.479 36.449 C 45.353 36.604,45.335 36.680,45.439 36.617 C 45.709 36.456,46.046 36.925,45.928 37.297 C 45.772 37.788,44.437 38.381,43.790 38.247 C 43.276 38.140,43.266 38.147,43.583 38.395 C 43.886 38.632,43.890 38.657,43.620 38.661 C 43.456 38.664,43.280 38.554,43.227 38.417 C 43.174 38.279,43.022 38.167,42.889 38.167 C 42.756 38.167,42.690 38.097,42.743 38.012 C 42.796 37.926,43.025 37.890,43.253 37.931 C 43.495 37.975,43.667 37.928,43.667 37.817 C 43.667 37.710,43.522 37.666,43.333 37.715 C 43.150 37.763,43.000 37.734,43.000 37.651 C 43.000 37.568,42.921 37.500,42.823 37.500 C 42.726 37.500,42.690 37.570,42.743 37.655 C 42.796 37.740,42.758 37.860,42.659 37.922 C 42.539 37.996,42.580 38.150,42.781 38.379 C 42.947 38.569,42.998 38.674,42.894 38.614 C 42.546 38.411,42.340 40.722,42.654 41.309 C 43.338 42.587,44.964 41.538,45.012 39.788 C 45.017 39.605,45.096 39.538,45.218 39.612 C 45.334 39.681,45.322 39.613,45.188 39.449 C 44.982 39.194,45.014 39.167,45.521 39.166 C 45.830 39.165,46.371 39.085,46.724 38.987 C 47.588 38.747,48.633 38.946,49.088 39.437 L 49.458 39.836 49.563 39.309 C 49.720 38.527,49.959 38.333,50.770 38.333 C 52.214 38.333,53.104 40.017,52.204 41.043 C 51.844 41.452,52.016 41.543,52.901 41.410 L 53.667 41.295 53.667 40.601 C 53.667 39.776,53.364 39.289,52.673 39.003 C 50.859 38.251,53.613 37.193,57.224 37.254 C 59.458 37.292,59.451 37.289,59.082 38.003 C 58.437 39.251,58.170 40.991,58.573 41.325 C 58.705 41.435,58.837 41.725,58.865 41.971 C 58.915 42.403,58.959 42.420,60.280 42.530 C 61.807 42.656,62.282 42.844,62.495 43.402 C 62.619 43.729,62.800 43.801,63.735 43.897 C 65.013 44.028,65.333 44.129,65.333 44.401 C 65.333 44.510,65.601 44.696,65.928 44.815 C 66.254 44.933,66.569 45.153,66.627 45.304 C 66.693 45.477,66.798 45.238,66.908 44.665 L 67.083 43.750 68.140 43.700 C 69.075 43.656,69.239 43.696,69.567 44.050 C 69.818 44.320,70.325 44.537,71.136 44.720 C 71.795 44.869,72.541 45.139,72.792 45.321 C 73.044 45.502,73.883 45.767,74.656 45.911 C 75.430 46.054,76.180 46.268,76.323 46.387 C 76.772 46.758,77.472 46.993,78.698 47.183 C 79.349 47.284,80.340 47.538,80.899 47.747 C 81.459 47.956,82.479 48.217,83.167 48.326 C 83.854 48.436,84.942 48.667,85.583 48.840 C 86.712 49.143,88.538 49.362,91.833 49.589 C 92.704 49.649,94.242 49.841,95.250 50.014 C 97.577 50.415,98.868 50.415,100.472 50.015 C 101.175 49.839,102.087 49.647,102.500 49.588 C 103.473 49.448,104.121 49.193,104.230 48.909 C 104.278 48.784,104.626 48.524,105.004 48.331 C 105.415 48.121,105.772 47.787,105.894 47.497 L 106.097 47.014 106.632 47.470 C 106.926 47.721,107.167 48.007,107.167 48.105 C 107.167 48.203,107.392 48.594,107.667 48.974 C 107.942 49.353,108.167 49.721,108.167 49.790 C 108.168 49.860,108.390 50.252,108.662 50.661 C 108.934 51.071,109.203 51.620,109.260 51.881 C 109.318 52.142,109.470 52.396,109.599 52.446 C 109.966 52.586,109.881 53.288,109.237 55.431 C 108.526 57.801,108.262 60.333,108.727 60.333 C 109.262 60.333,109.614 60.919,109.739 62.017 C 109.817 62.712,109.965 63.181,110.163 63.365 C 110.329 63.521,110.492 63.726,110.525 63.822 C 110.564 63.940,110.883 63.948,111.500 63.847 C 112.595 63.669,114.040 63.797,113.952 64.064 C 113.918 64.166,113.409 64.310,112.820 64.384 C 110.625 64.660,110.721 64.625,110.769 65.127 C 110.969 67.185,111.248 69.031,111.371 69.106 C 111.607 69.253,112.333 69.014,112.336 68.788 C 112.343 68.281,113.120 67.833,113.992 67.833 C 114.465 67.833,114.814 67.770,114.766 67.692 C 114.522 67.298,115.975 66.488,117.042 66.424 C 117.110 66.420,117.174 66.342,117.183 66.250 C 117.192 66.158,117.280 65.933,117.379 65.750 C 117.645 65.255,117.529 64.173,117.158 63.702 C 116.980 63.474,116.833 63.190,116.833 63.070 C 116.833 62.887,116.198 61.667,116.102 61.667 C 115.809 61.667,114.218 62.371,114.078 62.563 C 113.888 62.822,113.346 62.923,112.458 62.864 C 111.782 62.819,111.805 61.850,112.500 61.058 C 112.775 60.745,113.000 60.431,113.000 60.361 C 113.000 60.291,113.244 60.145,113.542 60.037 C 114.505 59.688,114.585 59.337,114.065 57.739 C 113.538 56.118,113.631 55.605,114.494 55.381 C 114.839 55.292,115.094 55.064,115.292 54.667 C 115.484 54.283,115.732 54.055,116.018 54.000 C 116.313 53.943,116.438 53.824,116.407 53.625 C 116.383 53.465,116.436 53.333,116.525 53.333 C 116.614 53.333,116.645 53.267,116.595 53.186 C 116.545 53.104,116.672 52.980,116.877 52.909 C 117.202 52.796,117.173 52.772,116.648 52.715 C 116.213 52.667,115.996 52.540,115.866 52.255 C 115.767 52.038,115.479 51.761,115.225 51.639 C 114.969 51.515,114.722 51.232,114.669 51.000 C 114.603 50.714,114.406 50.534,114.041 50.425 C 113.688 50.320,113.456 50.115,113.352 49.815 C 113.196 49.368,112.099 48.679,111.884 48.894 C 111.827 48.951,111.674 48.847,111.545 48.663 C 111.416 48.479,111.254 48.363,111.185 48.406 C 111.115 48.448,111.064 48.328,111.071 48.138 C 111.081 47.866,110.963 47.780,110.512 47.728 C 109.785 47.645,109.750 47.603,109.810 46.896 C 109.860 46.317,109.853 46.310,109.306 46.396 C 108.997 46.445,108.603 46.392,108.417 46.277 C 108.233 46.163,107.901 46.082,107.677 46.097 C 107.295 46.123,107.289 46.111,107.582 45.897 C 107.850 45.701,107.940 45.710,108.225 45.960 C 108.541 46.237,108.551 46.236,108.445 45.945 C 108.384 45.777,108.333 45.604,108.333 45.560 C 108.333 45.516,108.264 45.523,108.180 45.575 C 108.096 45.627,107.925 45.568,107.801 45.444 C 107.276 44.919,105.797 45.184,105.343 45.885 C 103.912 48.092,97.586 48.982,91.583 47.820 C 89.273 47.372,87.185 47.047,85.410 46.858 C 84.500 46.761,83.641 46.563,83.243 46.358 C 82.880 46.171,81.877 45.897,81.013 45.749 C 80.143 45.600,78.986 45.266,78.418 45.001 C 77.854 44.737,77.173 44.468,76.905 44.403 C 76.636 44.339,76.043 44.099,75.587 43.871 C 75.131 43.643,74.363 43.320,73.880 43.154 C 73.397 42.988,72.758 42.671,72.460 42.449 C 72.161 42.227,71.551 41.957,71.104 41.849 C 70.657 41.740,70.051 41.469,69.759 41.246 C 69.466 41.022,68.895 40.723,68.489 40.580 C 68.082 40.437,67.300 40.008,66.750 39.627 C 63.951 37.686,62.766 36.162,62.328 33.943 C 62.042 32.495,61.862 32.378,59.897 32.376 C 58.808 32.375,58.095 32.453,57.792 32.608 C 57.540 32.737,57.333 32.771,57.333 32.685 C 57.333 32.598,57.427 32.490,57.542 32.444 C 57.656 32.397,57.544 32.354,57.292 32.346 C 57.040 32.339,56.833 32.390,56.833 32.458 M56.125 33.013 C 55.755 33.229,55.747 33.483,56.111 33.430 C 56.264 33.407,56.407 33.264,56.430 33.111 C 56.452 32.958,56.458 32.836,56.444 32.838 C 56.429 32.841,56.285 32.920,56.125 33.013 M47.875 35.005 C 47.669 35.088,47.500 35.193,47.500 35.239 C 47.500 35.285,47.625 35.275,47.777 35.216 C 47.930 35.158,48.012 35.179,47.960 35.263 C 47.908 35.348,48.196 35.438,48.599 35.465 C 49.345 35.514,49.494 35.394,49.133 35.033 C 48.901 34.801,48.409 34.790,47.875 35.005 M49.078 35.189 C 49.129 35.240,48.986 35.272,48.760 35.260 C 48.534 35.248,48.307 35.196,48.256 35.145 C 48.204 35.093,48.347 35.061,48.573 35.073 C 48.799 35.085,49.026 35.137,49.078 35.189 M43.934 36.329 C 43.837 36.544,43.932 36.917,44.083 36.917 C 44.175 36.917,44.240 36.824,44.227 36.710 C 44.215 36.597,44.271 36.545,44.352 36.595 C 44.433 36.645,44.500 36.602,44.500 36.500 C 44.500 36.398,44.575 36.360,44.667 36.417 C 44.758 36.473,44.833 36.441,44.833 36.345 C 44.833 36.173,44.011 36.159,43.934 36.329 M106.000 36.427 C 106.000 36.569,106.075 36.640,106.167 36.583 C 106.258 36.527,106.333 36.602,106.333 36.750 C 106.333 36.898,106.258 36.973,106.167 36.917 C 105.930 36.770,105.970 37.030,106.239 37.385 C 106.499 37.727,106.636 37.593,106.589 37.045 C 106.563 36.752,106.604 36.712,106.778 36.857 C 106.940 36.991,107.000 36.991,107.000 36.854 C 107.000 36.461,106.971 36.418,106.739 36.466 C 106.608 36.493,106.500 36.436,106.500 36.341 C 106.500 36.245,106.388 36.167,106.250 36.167 C 106.112 36.167,106.000 36.284,106.000 36.427 M43.889 37.595 C 43.834 37.738,43.867 37.933,43.961 38.028 C 44.080 38.146,44.126 38.065,44.108 37.767 C 44.080 37.267,44.030 37.228,43.889 37.595 M107.083 39.083 C 107.083 39.313,107.140 39.500,107.208 39.500 C 107.277 39.500,107.333 39.313,107.333 39.083 C 107.333 38.854,107.277 38.667,107.208 38.667 C 107.140 38.667,107.083 38.854,107.083 39.083 M50.401 40.976 C 50.575 41.172,50.786 41.333,50.869 41.333 C 51.104 41.333,50.854 41.022,50.449 40.810 C 50.086 40.619,50.086 40.621,50.401 40.976 M107.333 43.740 C 107.333 44.112,107.468 44.535,107.667 44.788 L 108.000 45.212 108.000 44.465 C 108.000 43.930,107.906 43.633,107.667 43.417 C 107.339 43.120,107.333 43.126,107.333 43.740 M65.958 49.299 C 64.981 49.384,65.263 49.833,66.294 49.833 C 66.995 49.833,68.248 51.272,67.945 51.729 C 67.363 52.605,66.957 52.737,65.975 52.369 L 65.080 52.034 64.623 52.399 C 64.235 52.708,64.167 52.886,64.169 53.590 C 64.171 54.157,64.220 54.341,64.325 54.175 C 64.409 54.042,64.444 53.878,64.403 53.811 C 64.242 53.550,64.805 53.434,66.270 53.425 C 68.049 53.415,68.399 53.220,68.633 52.104 C 68.802 51.301,68.533 50.586,67.997 50.416 C 67.811 50.357,67.537 50.123,67.389 49.897 C 67.039 49.364,66.723 49.232,65.958 49.299 M114.241 50.723 C 114.409 50.845,114.517 51.014,114.481 51.098 C 114.446 51.182,114.251 51.081,114.048 50.875 C 113.642 50.463,113.760 50.371,114.241 50.723 M48.866 52.624 C 47.700 52.679,47.654 52.697,47.758 53.049 C 47.901 53.531,48.343 53.868,48.708 53.774 C 48.869 53.732,49.000 53.766,49.000 53.849 C 49.000 53.932,49.079 54.000,49.177 54.000 C 49.274 54.000,49.299 53.913,49.234 53.808 C 49.164 53.694,49.188 53.660,49.292 53.724 C 49.389 53.785,49.431 53.977,49.385 54.153 C 49.296 54.495,49.872 54.932,50.170 54.748 C 50.361 54.630,50.391 54.324,50.208 54.353 C 49.895 54.403,49.667 54.318,49.667 54.153 C 49.667 54.053,49.760 54.004,49.875 54.042 C 49.990 54.081,50.158 54.012,50.250 53.890 C 50.342 53.768,50.867 53.554,51.417 53.416 C 54.413 52.663,53.570 52.401,48.866 52.624 M54.833 54.257 C 54.833 56.031,55.465 57.154,56.750 57.665 C 57.300 57.884,58.428 58.417,59.257 58.851 C 60.086 59.284,61.037 59.690,61.371 59.752 C 61.705 59.815,62.108 60.010,62.266 60.185 C 62.564 60.513,63.950 61.000,64.589 61.000 C 64.788 61.000,65.318 61.196,65.767 61.435 C 66.216 61.674,66.733 61.896,66.917 61.928 C 69.422 62.366,70.743 61.718,68.610 61.098 C 67.760 60.851,67.167 60.419,67.167 60.048 C 67.167 59.821,66.493 59.380,65.932 59.239 C 65.419 59.110,65.210 58.846,65.488 58.674 C 65.608 58.600,65.371 58.433,64.884 58.248 C 64.444 58.081,63.896 57.814,63.667 57.654 C 63.438 57.495,62.837 57.236,62.333 57.078 C 61.822 56.918,61.224 56.586,60.980 56.326 C 60.677 56.003,60.304 55.824,59.760 55.743 C 59.313 55.676,58.770 55.452,58.497 55.222 C 57.034 53.991,54.833 53.411,54.833 54.257 M63.500 55.733 C 63.500 55.770,63.801 55.957,64.170 56.149 L 64.840 56.498 64.567 56.082 C 64.343 55.740,63.500 55.464,63.500 55.733 M112.823 57.411 C 113.400 57.710,113.616 58.731,113.202 59.207 C 112.606 59.895,111.064 60.006,110.360 59.413 L 109.861 58.993 110.278 58.246 C 110.563 57.737,110.837 57.468,111.140 57.402 C 111.384 57.348,111.658 57.279,111.750 57.249 C 112.096 57.133,112.364 57.174,112.823 57.411 M70.167 62.667 C 69.979 62.788,70.063 62.828,70.500 62.828 C 70.937 62.828,71.021 62.788,70.833 62.667 C 70.696 62.578,70.546 62.505,70.500 62.505 C 70.454 62.505,70.304 62.578,70.167 62.667 " stroke="none" fill="#66779a" fill-rule="evenodd"></path><path id="path3" d="M56.127 32.846 C 55.968 32.938,55.757 33.180,55.660 33.382 C 55.494 33.725,55.498 33.729,55.727 33.445 C 55.863 33.277,56.110 33.036,56.278 32.909 C 56.634 32.639,56.545 32.602,56.127 32.846 M50.749 34.334 C 50.306 34.824,50.508 34.870,51.051 34.402 C 51.322 34.169,51.421 34.000,51.285 34.000 C 51.157 34.000,50.915 34.150,50.749 34.334 M273.779 38.776 C 273.717 38.838,273.659 41.070,273.650 43.736 C 273.641 46.402,273.582 48.396,273.519 48.167 C 273.431 47.850,273.275 47.737,272.868 47.698 C 272.477 47.660,272.333 47.562,272.333 47.336 C 272.333 46.752,272.133 46.509,271.567 46.403 C 271.120 46.319,271.000 46.216,271.000 45.919 C 271.000 45.369,270.676 45.180,269.525 45.060 L 268.500 44.953 268.500 44.393 C 268.500 43.867,268.466 43.833,267.930 43.833 C 267.422 43.833,267.347 43.774,267.242 43.292 C 267.088 42.581,266.942 42.506,265.719 42.503 L 264.688 42.500 264.636 41.958 C 264.574 41.318,264.095 41.207,261.302 41.181 L 259.688 41.167 259.636 40.625 L 259.583 40.083 252.083 40.083 L 244.583 40.083 244.531 40.625 L 244.479 41.167 243.364 41.179 C 241.224 41.203,240.757 41.339,240.698 41.958 L 240.646 42.500 239.670 42.500 C 238.344 42.500,238.167 42.591,238.167 43.268 C 238.167 43.816,238.147 43.833,237.500 43.833 C 236.856 43.833,236.833 43.852,236.833 44.388 L 236.833 44.943 235.625 45.097 C 234.420 45.250,234.417 45.251,234.364 45.792 C 234.317 46.284,234.262 46.333,233.757 46.333 C 233.173 46.333,233.000 46.544,233.000 47.253 C 233.000 47.574,232.901 47.655,232.458 47.698 C 231.981 47.744,231.910 47.815,231.864 48.298 C 231.820 48.755,231.729 48.862,231.316 48.945 C 230.692 49.070,230.500 49.429,230.500 50.470 C 230.500 51.278,230.487 51.299,229.933 51.403 C 229.257 51.529,229.167 51.719,229.167 53.014 L 229.167 54.000 228.583 54.000 L 228.000 54.000 228.000 55.226 L 228.000 56.452 227.459 56.607 C 226.733 56.815,226.714 56.948,226.667 61.917 C 226.646 64.208,226.594 65.955,226.553 65.797 C 226.508 65.628,226.243 65.467,225.905 65.404 L 225.333 65.296 225.333 63.409 C 225.333 61.292,225.191 60.731,224.597 60.505 C 224.278 60.384,224.176 60.210,224.136 59.716 C 224.086 59.116,224.051 59.081,223.458 59.032 C 222.847 58.981,222.833 58.965,222.817 58.282 C 222.789 57.123,222.629 56.783,222.036 56.629 C 221.583 56.512,221.500 56.414,221.500 55.991 C 221.500 55.387,221.051 55.167,219.822 55.167 L 219.000 55.167 219.000 54.583 C 219.000 54.014,218.984 54.000,218.333 54.000 C 217.702 54.000,217.667 53.973,217.667 53.496 C 217.667 52.831,217.221 52.667,215.413 52.667 L 214.015 52.667 213.909 52.103 C 213.768 51.350,213.530 51.324,206.982 51.347 C 200.556 51.370,200.316 51.397,200.107 52.125 L 199.952 52.667 198.726 52.667 L 197.500 52.667 197.500 53.333 L 197.500 54.000 196.250 54.000 L 195.000 54.000 195.000 54.583 C 195.000 55.140,194.973 55.167,194.413 55.167 C 193.957 55.167,193.793 55.251,193.682 55.542 C 193.521 55.961,193.066 56.396,192.623 56.553 C 192.462 56.611,192.340 56.716,192.352 56.787 C 192.438 57.311,192.301 57.667,192.014 57.667 C 191.380 57.667,191.167 57.857,191.167 58.424 C 191.167 58.946,191.129 58.983,190.542 59.032 L 189.917 59.083 189.868 60.282 L 189.819 61.480 189.299 61.532 C 188.691 61.592,188.685 61.611,188.552 63.875 C 188.458 65.451,188.443 65.500,188.057 65.500 C 187.440 65.500,187.333 66.064,187.333 69.331 C 187.333 72.697,187.359 72.833,187.992 72.833 L 188.448 72.833 188.560 75.283 C 188.676 77.837,188.727 77.992,189.458 77.997 C 189.762 78.000,189.833 78.094,189.833 78.494 C 189.833 79.219,190.336 80.161,190.783 80.273 C 191.099 80.352,191.167 80.481,191.167 81.000 C 191.167 81.642,191.357 81.833,191.995 81.833 C 192.207 81.833,192.329 82.006,192.406 82.417 C 192.491 82.873,192.595 83.001,192.883 83.003 C 193.378 83.006,193.557 83.159,193.755 83.750 C 193.902 84.187,194.012 84.256,194.628 84.301 C 195.076 84.334,195.333 84.433,195.333 84.573 C 195.333 85.109,196.421 85.649,197.603 85.700 L 198.750 85.750 198.802 86.292 L 198.854 86.833 200.677 86.833 C 202.408 86.833,202.500 86.851,202.500 87.178 C 202.500 88.202,202.279 88.167,208.683 88.167 C 214.970 88.167,215.167 88.141,215.167 87.333 L 215.167 86.844 217.042 86.797 L 218.917 86.750 218.969 86.208 C 219.019 85.690,219.269 85.540,219.894 85.653 C 220.360 85.738,221.210 85.258,221.361 84.825 C 221.496 84.437,221.637 84.343,222.138 84.301 C 222.680 84.256,222.756 84.193,222.807 83.751 C 222.870 83.197,223.073 83.006,223.606 83.003 C 224.549 82.996,224.266 80.257,223.259 79.647 C 222.949 79.459,222.717 79.158,222.667 78.878 C 222.604 78.533,222.447 78.376,222.042 78.257 C 221.611 78.130,221.500 78.009,221.500 77.666 C 221.500 77.131,221.220 76.833,220.717 76.833 C 220.422 76.833,220.333 76.740,220.333 76.429 C 220.333 75.915,219.924 75.500,219.415 75.500 C 219.093 75.500,219.012 75.402,218.969 74.959 C 218.926 74.510,218.832 74.400,218.417 74.312 C 218.142 74.254,219.764 74.197,222.021 74.186 C 226.744 74.164,226.531 74.237,226.635 72.605 L 226.701 71.578 227.345 71.639 L 227.989 71.701 228.036 73.559 L 228.083 75.417 228.625 75.469 C 229.159 75.520,229.167 75.533,229.169 76.386 C 229.173 77.767,229.283 78.000,229.936 78.000 L 230.500 78.000 230.500 79.050 C 230.500 80.216,230.670 80.500,231.367 80.500 C 231.786 80.500,231.833 80.557,231.833 81.066 C 231.833 81.641,232.043 81.833,232.670 81.833 C 232.896 81.833,232.993 81.977,233.031 82.370 C 233.077 82.837,233.163 82.925,233.708 83.053 C 234.197 83.168,234.333 83.280,234.333 83.567 C 234.333 84.159,234.662 84.333,235.773 84.333 L 236.813 84.333 236.865 84.958 C 236.914 85.549,236.951 85.586,237.542 85.635 C 238.133 85.684,238.167 85.718,238.167 86.260 L 238.167 86.833 239.407 86.833 L 240.647 86.833 240.698 87.458 L 240.750 88.083 242.625 88.130 L 244.500 88.178 244.500 88.745 C 244.500 89.528,244.557 89.533,253.100 89.470 C 260.804 89.413,260.833 89.409,260.833 88.568 C 260.833 88.184,260.866 88.177,262.708 88.130 L 264.583 88.083 264.635 87.458 L 264.687 86.833 265.919 86.833 L 267.152 86.833 267.261 86.250 C 267.360 85.720,267.422 85.667,267.935 85.667 C 268.483 85.667,268.500 85.647,268.500 85.000 L 268.500 84.333 269.468 84.333 C 270.547 84.333,270.951 84.118,271.030 83.500 C 271.068 83.201,271.201 83.067,271.500 83.026 C 272.066 82.947,272.333 82.699,272.333 82.250 C 272.333 81.966,272.455 81.851,272.837 81.774 C 273.147 81.712,273.400 81.527,273.494 81.295 C 273.592 81.049,273.649 82.183,273.656 84.542 L 273.667 88.167 281.917 88.167 L 290.168 88.167 290.126 63.458 L 290.083 38.750 281.988 38.707 C 277.535 38.683,273.841 38.714,273.779 38.776 M335.946 38.776 C 335.884 38.838,335.833 49.978,335.833 63.531 L 335.833 88.173 343.458 88.167 C 347.652 88.163,351.665 88.162,352.375 88.163 C 353.602 88.167,353.667 88.186,353.669 88.542 C 353.675 89.419,353.639 89.412,358.666 89.474 C 363.739 89.536,363.833 89.521,363.833 88.646 L 363.833 88.167 365.649 88.167 C 367.597 88.167,367.667 88.135,367.667 87.244 C 367.667 86.868,367.728 86.845,368.875 86.799 L 370.083 86.750 370.136 86.208 C 370.183 85.715,370.238 85.667,370.746 85.667 C 371.267 85.667,371.311 85.623,371.417 85.000 C 371.522 84.374,371.564 84.333,372.098 84.333 C 372.637 84.333,372.667 84.303,372.667 83.750 C 372.667 83.244,372.720 83.167,373.070 83.167 C 373.790 83.167,374.000 82.996,374.000 82.409 C 374.000 81.905,374.049 81.850,374.542 81.802 L 375.083 81.750 375.132 80.551 L 375.181 79.353 375.799 79.301 L 376.417 79.250 376.464 77.375 L 376.511 75.500 377.071 75.500 C 377.850 75.500,377.834 75.621,377.824 69.611 C 377.812 63.183,377.784 62.936,377.040 62.864 L 376.500 62.812 376.500 61.573 L 376.500 60.333 375.833 60.333 L 375.167 60.333 375.167 59.091 L 375.167 57.848 374.605 57.743 C 374.063 57.641,374.038 57.603,373.933 56.705 C 373.808 55.639,373.618 55.333,373.081 55.333 C 372.784 55.333,372.681 55.213,372.597 54.766 C 372.472 54.098,372.276 54.000,371.070 54.000 L 370.167 54.000 370.167 53.333 C 370.167 52.668,370.165 52.667,369.511 52.667 C 368.893 52.667,368.851 52.635,368.802 52.127 C 368.741 51.495,368.292 51.360,366.208 51.343 L 365.000 51.333 365.000 50.748 L 365.000 50.163 358.792 50.206 L 352.583 50.250 352.500 50.833 C 352.454 51.154,352.379 48.567,352.333 45.083 L 352.250 38.750 344.154 38.707 C 339.702 38.683,336.008 38.714,335.946 38.776 M381.958 41.282 C 381.752 41.335,381.667 41.525,381.667 41.929 L 381.667 42.500 380.434 42.500 C 379.119 42.500,379.000 42.577,379.000 43.430 C 379.000 43.652,378.925 43.833,378.833 43.833 C 378.742 43.833,378.667 43.730,378.667 43.603 C 378.667 42.943,377.582 42.500,375.969 42.503 C 373.909 42.506,373.978 42.434,374.036 44.514 L 374.083 46.250 374.604 46.301 L 375.125 46.351 375.242 47.999 C 375.403 50.270,374.772 50.075,382.150 50.132 C 389.939 50.192,389.167 50.388,389.167 48.351 C 389.167 46.653,389.094 46.454,388.417 46.287 C 388.154 46.223,388.176 46.201,388.524 46.186 C 389.055 46.163,389.167 45.913,389.167 44.757 C 389.167 43.278,389.018 42.829,388.496 42.724 C 388.118 42.649,388.019 42.522,387.937 42.004 C 387.850 41.464,387.763 41.361,387.314 41.271 C 386.730 41.154,382.413 41.163,381.958 41.282 M41.444 41.444 C 41.383 41.506,41.333 41.768,41.333 42.028 L 41.333 42.500 40.098 42.500 L 38.863 42.500 38.751 43.160 L 38.640 43.819 37.445 43.868 L 36.250 43.917 36.198 44.458 C 36.146 44.997,36.007 45.081,35.292 45.009 C 35.057 44.985,35.000 45.111,35.000 45.656 L 35.000 46.333 34.032 46.333 C 32.610 46.333,32.448 46.552,32.343 48.614 C 32.338 48.723,32.090 48.836,31.792 48.864 C 31.200 48.921,31.215 48.883,31.186 50.458 L 31.167 51.500 30.603 51.500 C 30.159 51.500,30.017 51.580,29.938 51.875 C 29.729 52.657,29.821 60.007,30.042 60.075 C 30.156 60.110,30.456 60.184,30.708 60.239 C 31.159 60.338,31.167 60.362,31.167 61.587 L 31.167 62.833 31.728 62.833 L 32.290 62.833 32.404 63.985 C 32.519 65.151,32.642 65.333,33.312 65.333 C 33.490 65.333,33.658 65.537,33.757 65.875 C 33.910 66.393,33.965 66.423,35.033 66.567 C 36.122 66.713,36.151 66.730,36.200 67.234 L 36.250 67.750 37.542 67.799 L 38.833 67.847 38.833 68.406 C 38.833 69.114,38.978 69.167,40.926 69.167 L 42.490 69.167 42.630 69.708 L 42.770 70.250 45.843 70.417 C 48.870 70.581,48.916 70.589,48.904 70.956 C 48.887 71.432,49.093 71.490,50.917 71.518 C 52.829 71.549,52.937 71.580,53.144 72.173 C 53.259 72.502,53.429 72.667,53.655 72.667 C 54.023 72.667,54.172 73.070,54.116 73.917 C 54.092 74.287,54.005 74.410,53.781 74.392 C 53.505 74.369,53.501 74.392,53.739 74.655 C 54.304 75.279,54.086 75.482,52.792 75.534 L 51.583 75.583 51.532 76.208 L 51.480 76.833 49.490 76.833 L 47.500 76.833 47.500 76.339 C 47.500 75.588,47.144 75.500,44.112 75.500 C 41.198 75.500,41.167 75.491,41.167 74.674 C 41.167 74.338,40.573 74.167,39.406 74.167 C 38.717 74.167,38.686 74.144,38.636 73.625 L 38.583 73.083 37.375 73.034 L 36.167 72.985 36.167 72.489 C 36.167 71.881,35.582 71.595,34.601 71.723 C 33.901 71.815,33.673 72.036,33.669 72.625 C 33.667 72.939,33.576 73.000,33.103 73.000 C 32.452 73.000,32.339 73.234,32.336 74.591 C 32.333 75.394,32.310 75.438,31.792 75.591 L 31.250 75.750 31.201 77.162 C 31.149 78.659,30.967 79.058,30.204 79.350 C 29.830 79.493,29.825 79.533,29.870 81.873 L 29.917 84.250 31.125 84.299 C 32.272 84.345,32.333 84.368,32.333 84.744 C 32.333 85.588,32.455 85.667,33.757 85.667 L 34.979 85.667 35.031 86.208 L 35.083 86.750 37.532 86.796 L 39.980 86.842 40.032 87.463 L 40.083 88.083 48.064 88.127 C 56.626 88.173,56.500 88.185,56.500 87.313 L 56.500 86.833 58.316 86.833 C 60.234 86.833,60.333 86.792,60.333 85.986 C 60.333 85.707,60.458 85.667,61.320 85.667 C 62.652 85.667,62.833 85.576,62.833 84.909 C 62.833 84.387,62.871 84.350,63.458 84.302 C 64.026 84.255,64.088 84.201,64.135 83.718 C 64.180 83.255,64.255 83.180,64.718 83.135 C 65.201 83.088,65.255 83.026,65.302 82.458 C 65.354 81.823,65.476 81.752,66.458 81.789 C 66.591 81.793,66.667 81.560,66.667 81.148 C 66.667 80.501,66.804 80.408,67.667 80.466 C 67.712 80.469,67.769 79.484,67.792 78.278 C 67.815 77.071,67.917 75.773,68.017 75.393 C 68.236 74.568,68.153 73.334,67.773 71.750 C 67.619 71.108,67.383 70.111,67.249 69.534 C 67.115 68.957,66.825 68.244,66.605 67.951 C 66.385 67.657,66.150 67.229,66.082 67.000 C 65.948 66.551,63.068 63.667,62.753 63.667 C 62.648 63.667,62.075 63.373,61.479 63.013 C 60.884 62.654,60.101 62.307,59.740 62.243 C 59.157 62.138,57.557 61.578,55.351 60.706 C 54.948 60.547,54.554 60.285,54.476 60.125 C 54.397 59.965,54.269 59.702,54.190 59.542 C 54.112 59.381,53.906 59.223,53.732 59.191 C 53.024 59.057,51.991 58.482,52.104 58.285 C 52.168 58.174,52.156 58.142,52.077 58.214 C 51.998 58.285,51.833 58.173,51.710 57.964 L 51.486 57.583 51.597 58.000 C 51.747 58.566,51.957 58.800,52.387 58.884 C 52.587 58.923,52.431 58.965,52.042 58.977 C 51.344 59.000,51.333 58.991,51.333 58.440 L 51.333 57.881 50.309 57.774 C 49.745 57.715,48.620 57.667,47.809 57.667 L 46.333 57.667 46.333 57.083 C 46.333 56.514,46.317 56.500,45.667 56.500 L 45.000 56.500 45.000 55.273 L 45.000 54.045 45.773 53.939 C 46.199 53.881,46.758 53.833,47.016 53.833 C 47.418 53.833,47.500 53.752,47.593 53.260 C 47.679 52.799,47.796 52.665,48.184 52.580 C 48.450 52.521,48.887 52.254,49.154 51.987 C 49.729 51.412,49.872 51.405,53.635 51.741 C 55.868 51.940,56.264 52.021,56.802 52.386 C 57.140 52.615,57.754 52.852,58.167 52.913 C 59.292 53.079,59.975 53.325,60.208 53.651 C 61.137 54.950,62.703 53.924,63.222 51.675 C 63.351 51.119,63.648 50.384,63.883 50.041 C 64.118 49.698,64.434 48.932,64.585 48.340 C 64.737 47.748,65.013 47.050,65.199 46.789 C 65.384 46.528,65.509 46.294,65.477 46.270 C 65.444 46.246,65.050 46.090,64.603 45.924 C 64.155 45.758,63.636 45.470,63.450 45.283 C 63.249 45.082,62.565 44.819,61.764 44.634 C 61.023 44.464,60.208 44.172,59.952 43.986 C 59.438 43.612,58.554 43.446,55.583 43.165 C 54.483 43.061,53.021 42.861,52.333 42.720 C 51.461 42.541,50.655 42.495,49.667 42.568 C 48.290 42.669,47.836 42.728,45.125 43.166 C 43.237 43.470,42.500 43.070,42.500 41.739 C 42.500 41.339,41.757 41.131,41.444 41.444 M285.167 63.417 L 285.167 84.333 281.917 84.333 L 278.667 84.333 278.667 63.417 L 278.667 42.500 281.917 42.500 L 285.167 42.500 285.167 63.417 M347.333 49.883 C 347.333 55.404,347.384 57.317,347.533 57.467 C 347.670 57.603,348.467 57.667,350.033 57.667 L 352.333 57.667 352.333 57.083 L 352.333 56.500 353.208 56.498 C 354.601 56.494,354.833 56.385,354.833 55.731 L 354.833 55.167 359.333 55.167 L 363.833 55.167 363.833 55.671 C 363.833 56.280,364.279 56.500,365.511 56.500 L 366.333 56.500 366.333 57.083 C 366.333 57.653,366.349 57.667,367.000 57.667 C 367.623 57.667,367.667 57.698,367.667 58.146 C 367.667 58.694,367.903 58.943,368.500 59.026 C 368.833 59.072,368.927 59.191,368.969 59.625 C 369.017 60.121,369.070 60.167,369.594 60.167 C 370.151 60.167,370.167 60.185,370.167 60.833 L 370.167 61.500 370.833 61.500 L 371.500 61.500 371.500 62.750 L 371.500 64.000 372.083 64.000 L 372.667 64.000 372.667 69.156 L 372.667 74.312 372.125 74.364 L 371.583 74.417 371.534 75.625 C 371.489 76.744,371.458 76.834,371.118 76.836 C 370.436 76.841,370.271 77.092,370.198 78.230 L 370.129 79.315 369.523 79.366 C 368.978 79.412,368.912 79.469,368.866 79.942 C 368.822 80.393,368.735 80.481,368.241 80.574 C 367.718 80.672,367.667 80.733,367.667 81.258 L 367.667 81.833 366.680 81.833 C 365.344 81.833,365.167 81.923,365.167 82.601 L 365.167 83.167 363.934 83.167 C 362.645 83.167,362.500 83.252,362.500 84.014 C 362.500 84.318,362.344 84.333,359.351 84.333 L 356.203 84.333 356.088 83.877 C 355.924 83.224,355.768 83.172,353.958 83.169 L 352.333 83.167 352.333 82.500 C 352.333 81.853,352.316 81.833,351.768 81.833 C 351.190 81.833,351.000 81.624,351.000 80.986 C 351.000 80.702,350.872 80.667,349.833 80.667 L 348.667 80.667 348.667 81.250 C 348.667 81.819,348.651 81.833,348.000 81.833 L 347.333 81.833 347.333 83.083 L 347.333 84.333 344.167 84.333 L 341.000 84.333 341.000 63.417 L 341.000 42.500 344.167 42.500 L 347.333 42.500 347.333 49.883 M258.500 45.564 C 258.500 46.259,258.699 46.328,260.701 46.331 L 262.152 46.333 262.261 46.917 L 262.370 47.500 263.602 47.500 L 264.833 47.500 264.833 48.167 C 264.833 48.817,264.847 48.833,265.417 48.833 C 265.881 48.833,266.000 48.899,266.000 49.153 C 266.000 49.650,266.180 50.000,266.434 50.000 C 266.738 50.000,266.734 50.272,266.429 50.389 C 266.298 50.439,266.167 50.691,266.137 50.948 C 266.092 51.343,265.991 51.430,265.500 51.500 C 264.984 51.574,264.911 51.646,264.864 52.125 C 264.819 52.591,264.749 52.667,264.356 52.667 C 264.105 52.667,263.801 52.760,263.679 52.875 C 263.502 53.042,263.443 53.042,263.382 52.875 C 263.331 52.736,262.925 52.667,262.163 52.667 L 261.020 52.667 260.968 52.042 L 260.917 51.417 259.625 51.368 L 258.333 51.319 258.333 50.743 L 258.333 50.167 252.867 50.167 C 247.114 50.167,247.000 50.181,247.000 50.922 C 247.000 51.237,246.865 51.294,245.792 51.430 C 244.592 51.582,244.583 51.587,244.532 52.116 C 244.485 52.598,244.422 52.653,243.865 52.699 C 243.285 52.747,243.247 52.786,243.198 53.375 C 243.149 53.966,243.115 54.000,242.573 54.000 C 242.046 54.000,242.000 54.041,242.000 54.505 C 242.000 55.016,241.949 55.059,241.125 55.239 C 240.679 55.337,240.667 55.371,240.667 56.485 C 240.667 57.676,240.570 57.833,239.838 57.833 C 239.350 57.833,239.333 58.064,239.333 64.691 C 239.333 71.495,239.354 71.667,240.165 71.667 L 240.652 71.667 240.701 72.875 C 240.750 74.081,240.751 74.083,241.249 74.140 C 241.829 74.206,241.994 74.405,241.997 75.042 C 242.000 75.454,242.059 75.500,242.583 75.500 C 243.122 75.500,243.167 75.539,243.167 76.005 C 243.167 76.516,243.217 76.559,244.042 76.739 C 244.378 76.813,244.500 76.941,244.500 77.220 C 244.500 77.827,244.821 78.000,245.950 78.000 C 246.927 78.000,247.000 78.026,247.003 78.375 C 247.009 79.256,246.952 79.246,252.219 79.303 C 257.800 79.363,258.226 79.309,258.302 78.539 L 258.353 78.014 259.635 77.965 L 260.917 77.917 260.967 77.401 C 261.057 76.477,264.833 76.232,264.833 77.151 C 264.833 77.723,265.112 78.000,265.689 78.000 C 266.082 78.000,266.153 78.075,266.198 78.542 C 266.244 79.023,266.315 79.091,266.833 79.154 L 267.417 79.224 266.833 79.321 C 266.357 79.399,266.221 79.513,266.094 79.946 C 265.970 80.365,265.824 80.496,265.386 80.578 C 264.889 80.671,264.833 80.739,264.833 81.250 L 264.833 81.819 263.631 81.868 L 262.428 81.917 262.282 82.535 L 262.137 83.153 260.943 83.201 L 259.750 83.250 259.698 83.792 L 259.646 84.333 253.318 84.333 C 247.436 84.333,246.983 84.313,246.899 84.042 C 246.663 83.277,246.601 83.252,244.867 83.203 L 243.186 83.155 243.135 82.536 L 243.083 81.917 241.885 81.868 L 240.687 81.819 240.635 81.290 C 240.590 80.832,240.500 80.741,239.968 80.616 C 239.436 80.491,239.345 80.400,239.301 79.944 C 239.255 79.466,239.192 79.412,238.625 79.365 C 238.104 79.322,238.000 79.251,238.000 78.940 C 238.000 78.461,237.702 78.167,237.217 78.167 C 236.922 78.167,236.833 78.073,236.833 77.764 C 236.833 77.043,236.662 76.833,236.076 76.833 C 235.554 76.833,235.517 76.795,235.468 76.208 C 235.422 75.644,235.366 75.578,234.897 75.533 C 234.401 75.484,234.372 75.441,234.272 74.589 C 234.128 73.363,234.045 73.203,233.486 73.080 C 233.002 72.974,233.000 72.968,233.000 71.737 L 233.000 70.500 232.333 70.500 L 231.667 70.500 231.667 64.760 L 231.667 59.020 232.292 58.968 L 232.917 58.917 232.964 57.051 L 233.011 55.186 233.630 55.135 C 234.215 55.086,234.253 55.048,234.302 54.458 C 234.351 53.867,234.385 53.833,234.927 53.833 C 235.471 53.833,235.500 53.804,235.500 53.250 C 235.500 52.743,235.553 52.667,235.905 52.667 C 236.415 52.667,236.833 52.258,236.833 51.759 C 236.833 51.465,236.951 51.351,237.337 51.274 C 237.727 51.196,237.862 51.063,237.939 50.682 C 238.018 50.285,238.152 50.164,238.643 50.049 C 239.166 49.926,239.257 49.833,239.302 49.379 C 239.348 48.903,239.413 48.847,239.968 48.801 C 240.547 48.753,240.586 48.713,240.635 48.132 L 240.686 47.514 241.885 47.465 L 243.083 47.417 243.136 46.875 L 243.188 46.333 244.469 46.314 C 246.386 46.284,246.703 46.182,246.869 45.542 L 247.010 45.000 252.755 45.000 L 258.500 45.000 258.500 45.564 M292.772 50.540 C 292.597 51.192,292.652 77.107,292.829 77.572 C 292.954 77.901,293.108 78.000,293.496 78.000 L 294.000 78.000 294.000 79.511 C 294.000 81.054,294.164 81.667,294.577 81.667 C 294.935 81.667,295.333 82.147,295.333 82.577 C 295.333 82.968,295.612 83.167,296.157 83.167 C 296.394 83.167,296.477 83.358,296.565 84.114 C 296.693 85.197,296.881 85.500,297.425 85.500 C 297.637 85.500,297.909 85.610,298.030 85.744 C 298.912 86.723,299.085 86.833,299.733 86.833 C 300.283 86.833,300.316 86.866,300.365 87.458 L 300.417 88.083 302.292 88.130 L 304.167 88.178 304.167 88.735 C 304.167 89.472,304.334 89.500,308.677 89.500 C 312.582 89.500,313.000 89.420,313.000 88.672 L 313.000 88.169 323.125 88.126 L 333.250 88.083 333.292 69.449 C 333.321 56.735,333.279 50.711,333.161 50.489 C 332.991 50.172,332.773 50.165,324.952 50.207 L 316.917 50.250 316.874 59.698 L 316.831 69.146 316.292 69.198 C 315.662 69.259,315.526 69.709,315.510 71.792 L 315.500 73.000 314.917 73.000 C 314.361 73.000,314.333 73.028,314.333 73.583 L 314.333 74.167 312.692 74.167 C 310.754 74.167,310.500 74.010,310.500 72.812 C 310.500 71.950,310.286 71.667,309.635 71.667 L 309.169 71.667 309.126 60.958 L 309.083 50.250 300.978 50.207 L 292.873 50.164 292.772 50.540 M114.048 50.875 C 114.251 51.081,114.446 51.182,114.481 51.098 C 114.517 51.014,114.409 50.845,114.241 50.723 C 113.760 50.371,113.642 50.463,114.048 50.875 M121.189 51.530 C 120.615 51.659,120.423 51.794,120.283 52.165 C 120.109 52.625,120.073 52.637,118.650 52.693 C 117.195 52.750,116.727 52.895,117.151 53.157 C 117.275 53.234,117.325 53.379,117.262 53.481 C 117.199 53.583,117.234 53.667,117.341 53.667 C 117.448 53.667,117.302 53.884,117.018 54.150 C 116.733 54.416,116.500 54.769,116.500 54.935 C 116.500 55.100,116.232 55.510,115.905 55.845 L 115.311 56.454 115.736 57.755 C 115.969 58.470,116.301 59.212,116.472 59.403 C 116.643 59.594,116.902 60.058,117.047 60.435 C 117.193 60.812,117.505 61.404,117.739 61.750 C 118.203 62.434,118.372 64.728,117.987 65.113 C 117.859 65.241,118.108 65.287,118.862 65.271 L 119.917 65.250 119.968 64.625 L 120.020 64.000 121.260 64.000 L 122.500 64.000 122.500 63.417 L 122.500 62.833 127.000 62.833 L 131.500 62.833 131.500 63.417 C 131.500 63.972,131.528 64.000,132.083 64.000 C 132.653 64.000,132.667 64.016,132.667 64.667 L 132.667 65.333 127.187 65.333 C 121.211 65.333,120.653 65.408,120.332 66.255 C 120.183 66.646,120.107 66.667,118.837 66.667 L 117.500 66.667 117.500 67.250 L 117.500 67.833 116.514 67.833 C 115.182 67.833,115.000 67.924,115.000 68.591 C 115.000 69.113,114.962 69.150,114.375 69.198 C 113.786 69.247,113.747 69.285,113.699 69.865 C 113.653 70.422,113.597 70.485,113.116 70.532 C 112.390 70.602,112.376 70.705,112.353 76.445 C 112.331 81.921,112.319 81.833,113.101 81.833 L 113.667 81.833 113.667 82.761 C 113.667 83.952,113.870 84.333,114.506 84.333 C 114.945 84.333,115.000 84.390,115.000 84.837 C 115.000 85.446,115.446 85.667,116.678 85.667 C 117.525 85.667,117.622 85.779,117.512 86.625 C 117.493 86.776,117.846 86.833,118.805 86.833 L 120.125 86.833 120.223 87.324 C 120.368 88.049,121.043 88.165,125.130 88.166 C 129.063 88.167,129.733 88.040,129.929 87.261 C 130.033 86.847,130.078 86.833,131.351 86.833 L 132.667 86.833 132.667 86.250 C 132.667 85.681,132.683 85.667,133.333 85.667 C 133.984 85.667,134.000 85.681,134.000 86.250 L 134.000 86.833 140.896 86.833 L 147.792 86.833 147.896 86.313 C 148.034 85.624,148.028 68.075,147.890 66.610 C 147.815 65.817,147.705 65.440,147.529 65.373 C 146.749 65.074,146.667 64.780,146.664 62.292 C 146.662 59.357,146.626 59.205,145.898 59.069 C 145.386 58.973,145.333 58.909,145.333 58.390 C 145.333 57.643,144.964 56.946,144.440 56.708 C 144.139 56.570,144.008 56.364,143.970 55.967 C 143.923 55.480,143.850 55.407,143.340 55.333 C 142.897 55.269,142.742 55.154,142.666 54.835 C 142.543 54.309,141.950 54.006,141.042 54.002 C 140.438 54.000,140.333 53.949,140.333 53.656 C 140.333 52.834,140.068 52.667,138.762 52.667 C 137.604 52.667,137.531 52.644,137.435 52.263 C 137.223 51.419,136.466 51.339,128.833 51.353 C 124.956 51.361,121.597 51.438,121.189 51.530 M164.535 51.610 C 164.233 51.759,163.850 52.055,163.683 52.267 C 163.420 52.602,163.209 52.658,162.065 52.701 L 160.750 52.750 160.699 53.368 L 160.647 53.986 159.449 54.035 L 158.250 54.083 158.198 54.616 C 158.152 55.098,158.089 55.153,157.532 55.199 C 156.954 55.247,156.914 55.287,156.866 55.866 C 156.817 56.444,156.777 56.484,156.199 56.532 C 155.639 56.579,155.579 56.632,155.531 57.125 C 155.493 57.523,155.397 57.667,155.170 57.667 C 154.543 57.667,154.333 57.859,154.333 58.434 C 154.333 58.943,154.286 59.000,153.867 59.000 C 153.170 59.000,153.000 59.284,153.000 60.450 C 153.000 61.374,152.962 61.500,152.680 61.500 C 151.988 61.500,151.833 61.678,151.832 62.476 C 151.829 64.495,151.641 65.470,151.235 65.572 C 150.655 65.718,150.502 66.558,150.501 69.611 C 150.500 72.690,150.530 72.833,151.167 72.833 L 151.633 72.833 151.744 75.125 C 151.877 77.864,151.864 77.814,152.487 77.939 C 152.914 78.024,152.989 78.122,153.033 78.644 C 153.080 79.212,153.122 79.253,153.701 79.301 L 154.319 79.353 154.368 80.465 C 154.415 81.535,154.436 81.583,154.917 81.744 C 155.507 81.943,155.661 82.122,155.664 82.614 C 155.666 82.901,155.780 82.990,156.195 83.031 C 156.615 83.073,156.758 83.187,156.887 83.583 C 157.094 84.218,157.266 84.328,158.065 84.331 C 158.731 84.333,159.028 84.558,159.335 85.292 C 159.459 85.587,159.626 85.667,160.126 85.667 C 160.670 85.667,160.786 85.734,160.939 86.141 C 161.151 86.702,161.622 86.833,163.419 86.833 C 164.571 86.833,164.636 86.854,164.735 87.249 C 164.945 88.086,165.527 88.167,171.312 88.164 C 177.003 88.161,176.902 88.175,177.076 87.375 L 177.193 86.833 179.006 86.833 L 180.818 86.833 180.924 86.271 C 181.025 85.730,181.064 85.705,181.962 85.600 C 183.036 85.473,183.333 85.285,183.333 84.730 C 183.333 84.378,183.409 84.333,184.000 84.333 C 184.650 84.333,184.667 84.319,184.667 83.752 C 184.667 83.203,184.703 83.165,185.333 83.064 C 185.978 82.961,186.000 82.936,186.000 82.312 C 186.000 81.737,186.045 81.667,186.411 81.667 C 186.930 81.667,187.167 81.235,187.287 80.069 C 187.368 79.284,187.427 79.167,187.740 79.167 C 188.279 79.167,188.500 78.845,188.500 78.062 C 188.500 77.297,188.181 76.833,187.655 76.833 C 187.441 76.833,187.333 76.718,187.333 76.489 C 187.333 75.678,187.063 75.500,185.827 75.500 L 184.667 75.500 184.667 74.938 C 184.667 74.308,184.341 74.167,182.896 74.167 C 182.174 74.167,182.167 74.161,182.167 73.583 L 182.167 73.000 180.927 73.000 L 179.687 73.000 179.635 72.375 L 179.583 71.750 178.500 71.702 C 177.904 71.676,177.117 71.716,176.750 71.791 L 176.083 71.929 175.933 73.039 C 175.787 74.121,175.770 74.151,175.266 74.200 C 174.801 74.245,174.745 74.311,174.698 74.875 L 174.647 75.500 173.004 75.500 C 170.956 75.500,170.838 75.544,170.816 76.309 L 170.799 76.917 170.669 76.367 C 170.495 75.634,170.510 75.642,169.276 75.543 C 168.249 75.461,168.195 75.435,168.103 74.975 C 168.029 74.604,167.891 74.470,167.503 74.392 C 167.094 74.310,167.000 74.209,167.000 73.846 C 167.000 73.274,166.720 73.000,166.133 73.000 L 165.667 73.000 165.667 69.177 L 165.667 65.353 166.292 65.302 C 166.883 65.253,166.919 65.216,166.968 64.625 L 167.020 64.000 168.159 64.000 C 169.348 64.000,169.500 63.904,169.500 63.153 C 169.500 62.857,169.638 62.833,171.406 62.833 L 173.312 62.833 173.364 63.375 C 173.412 63.868,173.472 63.921,174.032 63.968 C 174.610 64.016,174.651 64.056,174.699 64.634 C 174.745 65.195,174.799 65.255,175.292 65.302 C 175.766 65.348,175.833 65.414,175.833 65.838 C 175.833 66.548,176.222 66.667,178.539 66.667 C 180.770 66.667,181.000 66.586,181.000 65.807 C 181.000 65.353,181.012 65.347,182.208 65.299 L 183.417 65.250 183.468 64.625 L 183.520 64.000 184.760 64.000 C 185.782 64.000,186.000 63.953,186.000 63.735 C 186.000 63.325,186.677 62.861,187.453 62.740 C 188.700 62.546,189.025 60.763,187.875 60.424 C 187.346 60.268,187.333 60.243,187.333 59.312 C 187.333 58.155,187.224 57.833,186.829 57.833 C 186.210 57.833,186.000 57.639,186.000 57.066 C 186.000 56.531,185.968 56.500,185.420 56.500 C 184.922 56.500,184.825 56.435,184.739 56.042 C 184.559 55.218,184.516 55.167,184.016 55.167 C 183.580 55.167,183.515 55.103,183.469 54.625 C 183.418 54.094,183.399 54.082,182.511 54.032 C 181.581 53.979,181.319 53.807,180.998 53.042 C 180.855 52.700,180.730 52.667,179.587 52.667 L 178.333 52.667 178.333 52.104 C 178.333 51.338,178.433 51.349,171.224 51.343 C 165.872 51.338,165.013 51.372,164.535 51.610 M92.083 52.406 C 91.442 52.532,90.616 52.746,90.248 52.880 C 89.880 53.014,89.242 53.180,88.831 53.248 C 87.977 53.390,87.290 53.708,86.612 54.273 C 86.353 54.490,86.037 54.667,85.910 54.667 C 85.782 54.667,85.404 54.907,85.069 55.202 L 84.460 55.737 84.147 55.350 C 83.974 55.137,83.833 54.723,83.833 54.430 C 83.833 53.246,83.901 53.262,78.811 53.313 C 75.073 53.352,74.149 53.407,73.693 53.623 L 73.136 53.886 73.229 56.985 C 73.281 58.689,73.328 60.196,73.334 60.333 C 73.361 60.964,73.186 63.734,73.028 65.167 C 72.932 66.037,72.809 67.650,72.756 68.750 C 72.635 71.230,72.178 77.183,72.090 77.441 C 71.766 78.383,71.576 99.132,71.889 99.445 C 72.048 99.604,84.308 99.734,85.123 99.584 L 85.663 99.486 85.707 92.463 C 85.748 85.761,85.763 85.454,86.043 85.734 C 86.204 85.895,86.297 86.091,86.249 86.169 C 86.038 86.509,86.677 86.681,88.532 86.785 C 89.979 86.866,89.981 86.866,90.089 87.361 C 90.161 87.688,90.276 87.827,90.427 87.769 C 90.553 87.721,90.694 87.742,90.740 87.817 C 90.786 87.891,91.894 87.967,93.203 87.984 C 94.512 88.002,95.921 88.032,96.333 88.050 L 97.083 88.083 97.075 87.458 L 97.067 86.833 99.617 86.833 L 102.167 86.833 102.167 86.250 L 102.167 85.667 102.989 85.667 C 104.213 85.667,104.667 85.445,104.667 84.848 C 104.667 84.397,104.722 84.349,105.292 84.302 C 105.862 84.255,105.921 84.203,105.969 83.708 C 106.009 83.295,106.100 83.167,106.355 83.167 C 106.964 83.167,107.333 82.850,107.333 82.327 C 107.333 81.951,107.410 81.833,107.653 81.833 C 108.404 81.833,108.500 81.681,108.500 80.492 L 108.500 79.353 109.125 79.302 C 109.471 79.273,109.759 79.157,109.771 79.042 C 109.782 78.927,109.801 78.351,109.813 77.761 L 109.833 76.688 110.373 76.636 C 111.070 76.568,111.132 76.228,111.154 72.318 C 111.173 69.003,111.020 68.275,110.149 67.543 C 109.447 66.952,109.238 66.394,108.995 64.455 C 108.827 63.112,108.711 62.726,108.336 62.253 C 108.085 61.938,107.787 61.346,107.673 60.938 C 107.558 60.529,107.248 59.987,106.982 59.733 C 106.717 59.479,106.500 59.188,106.500 59.087 C 106.500 58.911,106.275 58.643,104.739 56.982 C 103.534 55.681,102.333 54.708,101.799 54.602 C 101.512 54.544,101.043 54.318,100.756 54.099 C 100.469 53.880,99.525 53.504,98.659 53.262 C 97.792 53.021,96.708 52.713,96.250 52.579 C 95.008 52.215,93.395 52.148,92.083 52.406 M273.667 64.713 L 273.667 76.925 273.009 76.863 C 272.386 76.803,272.349 76.768,272.301 76.192 C 272.256 75.653,272.192 75.577,271.751 75.527 C 271.195 75.464,271.006 75.260,271.003 74.719 C 271.001 74.434,270.887 74.343,270.479 74.302 C 270.049 74.259,269.926 74.148,269.771 73.667 C 269.614 73.178,269.496 73.075,269.042 73.031 C 268.644 72.993,268.500 72.897,268.500 72.670 C 268.500 71.973,268.326 71.853,267.152 71.737 L 266.000 71.624 266.000 71.062 C 266.000 70.534,265.966 70.500,265.431 70.500 C 264.898 70.500,264.856 70.459,264.750 69.833 L 264.637 69.167 263.081 69.167 C 261.386 69.167,261.000 69.337,261.000 70.085 C 261.000 70.407,260.902 70.488,260.464 70.531 C 260.019 70.574,259.901 70.676,259.773 71.125 C 259.673 71.474,259.514 71.667,259.323 71.667 C 258.710 71.667,258.500 71.863,258.500 72.434 C 258.500 72.983,258.480 73.000,257.833 73.000 C 257.183 73.000,257.167 73.014,257.167 73.583 L 257.167 74.167 253.333 74.167 L 249.500 74.167 249.500 73.583 C 249.500 73.014,249.484 73.000,248.833 73.000 C 248.202 73.000,248.167 72.973,248.167 72.496 C 248.167 71.887,247.721 71.667,246.489 71.667 L 245.667 71.667 245.667 70.518 C 245.667 69.327,245.569 69.167,244.845 69.167 C 244.588 69.167,244.240 65.778,244.323 64.083 C 244.327 63.992,244.379 63.112,244.437 62.128 L 244.543 60.340 245.105 60.235 L 245.667 60.130 245.667 58.898 L 245.667 57.667 246.594 57.667 C 247.728 57.667,248.167 57.456,248.167 56.911 C 248.167 56.587,248.252 56.500,248.570 56.500 C 249.293 56.500,249.500 56.330,249.500 55.732 L 249.500 55.167 253.323 55.167 L 257.147 55.167 257.198 55.792 L 257.250 56.417 258.458 56.466 L 259.667 56.515 259.667 57.091 C 259.667 57.652,259.684 57.667,260.333 57.667 L 261.000 57.667 261.000 58.635 C 261.000 60.074,261.129 60.176,263.002 60.216 L 264.581 60.250 264.737 59.625 C 264.877 59.059,264.945 59.000,265.446 59.000 C 265.981 59.000,266.000 58.977,266.000 58.333 L 266.000 57.667 267.050 57.667 C 268.171 57.667,268.500 57.493,268.500 56.901 C 268.500 56.529,268.786 56.333,269.329 56.333 C 269.647 56.333,269.833 56.020,269.833 55.486 C 269.833 55.242,269.952 55.167,270.339 55.167 C 270.849 55.167,270.892 55.116,271.073 54.292 C 271.159 53.899,271.256 53.833,271.753 53.833 C 272.303 53.833,272.333 53.804,272.333 53.260 C 272.333 52.720,272.370 52.683,272.958 52.621 C 273.302 52.585,273.602 52.543,273.625 52.528 C 273.648 52.513,273.667 57.996,273.667 64.713 M49.667 54.135 C 49.667 54.224,49.785 54.343,49.931 54.399 C 50.093 54.461,50.169 54.424,50.129 54.302 C 50.045 54.053,49.667 53.916,49.667 54.135 M304.207 63.957 L 304.250 72.747 304.750 72.833 C 305.235 72.916,305.251 72.949,305.290 73.918 C 305.388 76.409,305.463 76.667,306.085 76.667 C 306.614 76.667,306.650 76.703,306.698 77.292 C 306.747 77.883,306.784 77.919,307.375 77.968 C 307.964 78.017,308.000 78.052,308.000 78.586 C 308.000 79.340,308.244 79.378,312.548 79.307 C 316.204 79.246,316.667 79.134,316.667 78.308 C 316.667 78.061,316.796 78.000,317.323 78.000 C 317.940 78.000,317.982 77.968,318.031 77.464 C 318.076 76.998,318.164 76.908,318.699 76.783 C 319.256 76.652,319.320 76.580,319.366 76.028 C 319.410 75.497,319.481 75.407,319.914 75.333 C 320.529 75.227,320.643 74.737,320.657 72.125 C 320.665 70.648,320.711 70.333,320.917 70.333 C 321.825 70.333,321.833 70.258,321.833 62.417 L 321.833 55.167 325.083 55.167 L 328.333 55.167 328.333 69.750 L 328.333 84.333 325.083 84.333 L 321.833 84.333 321.833 83.083 L 321.833 81.833 321.250 81.833 C 320.757 81.833,320.666 81.775,320.664 81.458 C 320.659 80.675,319.492 80.332,317.680 80.581 C 316.851 80.696,316.833 80.710,316.833 81.266 C 316.833 81.800,316.800 81.833,316.268 81.833 C 315.670 81.833,315.500 82.040,315.500 82.764 C 315.500 83.154,315.461 83.167,314.250 83.167 C 313.563 83.167,313.000 83.230,313.000 83.307 C 313.000 83.384,312.813 83.532,312.583 83.636 C 312.354 83.741,312.167 83.940,312.167 84.080 C 312.167 84.296,311.771 84.333,309.451 84.333 L 306.736 84.333 306.576 83.792 C 306.417 83.252,306.413 83.250,305.208 83.201 C 304.067 83.155,304.000 83.130,304.000 82.763 C 304.000 82.202,303.681 82.014,302.525 81.893 L 301.500 81.786 301.500 81.226 C 301.500 80.758,301.439 80.666,301.125 80.664 C 300.573 80.660,300.370 80.475,300.307 79.916 C 300.256 79.471,300.181 79.411,299.625 79.365 L 299.000 79.313 299.000 77.772 C 299.000 76.154,298.855 75.742,298.250 75.637 C 297.921 75.580,297.916 75.431,297.874 65.373 L 297.831 55.167 300.997 55.167 L 304.164 55.167 304.207 63.957 M352.875 59.170 C 352.602 59.281,352.500 59.460,352.500 59.828 C 352.500 60.306,352.465 60.333,351.833 60.333 C 351.327 60.333,351.167 60.399,351.167 60.607 C 351.167 60.907,350.790 61.258,350.208 61.502 C 349.920 61.622,349.833 61.794,349.833 62.246 C 349.833 62.803,349.804 62.833,349.265 62.833 C 348.732 62.833,348.689 62.875,348.585 63.490 C 348.486 64.078,348.418 64.153,347.945 64.199 L 347.417 64.250 347.373 69.358 C 347.325 74.823,347.384 75.333,348.061 75.333 C 348.485 75.333,348.667 75.606,348.667 76.245 C 348.667 76.553,348.784 76.651,349.250 76.739 C 349.783 76.839,349.833 76.898,349.833 77.424 C 349.833 77.983,349.852 78.000,350.490 78.000 C 351.128 78.000,351.148 78.017,351.198 78.625 L 351.250 79.250 356.301 79.294 C 362.048 79.344,362.393 79.302,362.468 78.542 C 362.515 78.071,362.581 78.014,363.135 77.968 C 363.715 77.920,363.753 77.881,363.802 77.292 C 363.845 76.771,363.916 76.667,364.227 76.667 C 364.884 76.667,365.000 76.364,365.000 74.650 L 365.000 73.033 365.625 72.885 L 366.250 72.738 366.295 69.301 C 366.344 65.566,366.292 65.333,365.412 65.333 C 365.034 65.333,365.012 65.274,364.966 64.125 L 364.917 62.917 364.384 62.865 C 363.902 62.818,363.847 62.756,363.801 62.198 C 363.753 61.619,363.714 61.580,363.125 61.532 C 362.534 61.483,362.500 61.449,362.500 60.907 L 362.500 60.333 361.260 60.333 L 360.020 60.333 359.968 59.708 L 359.917 59.083 356.583 59.050 C 354.750 59.032,353.081 59.086,352.875 59.170 M208.929 62.125 C 209.069 62.690,209.142 62.755,209.693 62.801 C 210.181 62.842,210.322 62.933,210.405 63.264 C 210.478 63.552,210.659 63.707,211.004 63.776 C 211.450 63.865,211.500 63.939,211.500 64.507 C 211.500 64.857,211.593 65.176,211.708 65.223 C 211.823 65.269,209.798 65.313,207.208 65.320 L 202.500 65.333 202.500 64.677 C 202.500 64.038,202.517 64.019,203.125 63.968 C 203.690 63.922,203.755 63.866,203.801 63.397 C 203.848 62.908,203.900 62.872,204.671 62.781 C 205.760 62.652,206.167 62.415,206.167 61.911 C 206.167 61.509,206.196 61.500,207.471 61.500 L 208.775 61.500 208.929 62.125 M93.987 62.070 C 94.884 62.397,96.266 63.305,96.840 63.945 C 97.073 64.204,97.399 64.492,97.564 64.585 C 97.756 64.693,97.922 65.082,98.025 65.668 C 98.114 66.172,98.343 67.057,98.536 67.635 C 98.917 68.783,98.937 68.544,98.179 71.972 C 97.990 72.828,97.784 73.615,97.720 73.722 C 97.279 74.461,95.693 76.020,95.168 76.230 C 94.826 76.367,94.262 76.671,93.916 76.906 C 93.102 77.459,90.133 77.544,89.223 77.041 C 88.933 76.881,88.370 76.575,87.973 76.361 C 87.265 75.980,85.641 74.402,85.294 73.758 C 84.477 72.241,83.886 68.378,84.309 67.320 C 84.398 67.098,84.639 66.467,84.845 65.917 C 85.456 64.288,86.099 63.410,86.977 63.009 C 87.402 62.814,87.945 62.547,88.183 62.414 C 89.543 61.656,92.388 61.488,93.987 62.070 M358.667 64.403 C 358.667 65.124,358.838 65.333,359.427 65.333 L 359.985 65.333 360.034 66.542 L 360.083 67.750 360.708 67.802 L 361.333 67.853 361.333 69.760 L 361.333 71.667 360.867 71.667 C 360.173 71.667,360.000 71.952,360.000 73.091 L 360.000 74.116 358.294 74.220 C 357.356 74.277,355.935 74.278,355.136 74.221 L 353.684 74.118 353.634 73.601 C 353.588 73.134,353.522 73.078,352.958 73.032 L 352.333 72.980 352.333 69.823 L 352.333 66.667 352.736 66.667 C 353.460 66.667,353.667 66.496,353.667 65.899 C 353.667 65.364,353.698 65.333,354.250 65.333 C 354.819 65.333,354.833 65.317,354.833 64.667 L 354.833 64.000 356.750 64.000 C 358.666 64.000,358.667 64.000,358.667 64.403 M50.833 73.596 C 50.833 73.709,51.699 74.023,51.782 73.941 C 51.819 73.903,51.622 73.792,51.342 73.695 C 51.062 73.597,50.833 73.553,50.833 73.596 M132.772 74.542 C 132.716 74.748,132.670 75.348,132.669 75.875 L 132.667 76.833 131.708 76.836 C 130.593 76.839,130.424 76.922,130.272 77.542 L 130.160 78.000 128.247 78.000 L 126.333 78.000 126.333 76.083 L 126.333 74.167 129.603 74.167 L 132.872 74.167 132.772 74.542 M214.292 74.282 C 214.086 74.335,214.000 74.525,214.000 74.922 L 214.000 75.485 212.792 75.534 L 211.583 75.583 211.532 76.208 L 211.480 76.833 208.907 76.833 L 206.333 76.833 206.333 76.367 C 206.333 75.670,206.049 75.500,204.883 75.500 L 203.833 75.500 203.833 74.931 C 203.833 74.617,203.740 74.323,203.625 74.277 C 203.510 74.231,205.929 74.196,209.000 74.199 C 212.071 74.203,214.452 74.240,214.292 74.282 M69.907 81.241 C 70.085 81.383,70.347 81.494,70.490 81.487 C 70.715 81.475,70.716 81.461,70.500 81.381 C 70.362 81.330,70.100 81.219,69.917 81.135 C 69.589 80.984,69.589 80.986,69.907 81.241 M87.767 88.401 C 87.866 88.659,88.475 88.938,89.250 89.080 C 89.653 89.154,89.623 89.122,89.094 88.917 C 88.734 88.777,88.315 88.551,88.165 88.415 C 87.819 88.102,87.650 88.097,87.767 88.401 M95.214 90.101 C 95.011 90.320,94.912 90.500,94.994 90.500 C 95.190 90.500,95.667 90.019,95.667 89.821 C 95.667 89.620,95.649 89.631,95.214 90.101 " stroke="none" fill="#fbfbfb" fill-rule="evenodd"></path><path id="path4" d="M91.417 28.645 C 91.828 28.733,91.926 28.845,91.968 29.276 C 92.016 29.772,92.063 29.805,92.801 29.871 C 93.710 29.953,93.914 29.894,93.228 29.748 C 92.475 29.588,92.254 29.416,92.197 28.942 C 92.150 28.549,92.076 28.502,91.531 28.520 C 90.930 28.539,90.928 28.542,91.417 28.645 M94.519 30.782 C 94.503 31.087,94.602 31.155,95.125 31.198 C 95.696 31.245,95.755 31.297,95.802 31.792 C 95.843 32.217,95.931 32.333,96.209 32.333 C 96.526 32.333,96.535 32.311,96.294 32.125 C 96.145 32.010,96.000 31.729,95.970 31.500 C 95.925 31.152,95.815 31.075,95.302 31.032 C 94.894 30.998,94.662 30.886,94.613 30.699 C 94.559 30.492,94.533 30.514,94.519 30.782 M79.817 39.845 C 77.023 40.282,75.458 43.663,77.782 44.243 C 78.039 44.307,78.759 44.582,79.381 44.855 C 82.274 46.123,84.090 45.684,84.074 43.721 C 84.056 41.411,81.967 39.509,79.817 39.845 M42.507 41.781 C 42.484 43.057,43.258 43.467,45.125 43.166 C 47.836 42.728,48.290 42.669,49.667 42.568 C 50.655 42.495,51.461 42.541,52.333 42.720 C 53.021 42.861,54.483 43.061,55.583 43.165 C 58.554 43.446,59.438 43.612,59.952 43.986 C 60.208 44.172,61.023 44.464,61.764 44.634 C 62.565 44.819,63.249 45.082,63.450 45.283 C 63.636 45.470,64.155 45.758,64.603 45.924 C 65.050 46.090,65.444 46.246,65.477 46.270 C 65.509 46.294,65.384 46.528,65.199 46.789 C 65.013 47.050,64.737 47.748,64.585 48.340 C 64.434 48.932,64.118 49.698,63.883 50.041 C 63.648 50.384,63.351 51.119,63.222 51.675 C 62.703 53.924,61.137 54.950,60.208 53.651 C 59.975 53.325,59.292 53.079,58.167 52.913 C 57.754 52.852,57.140 52.615,56.802 52.386 C 56.264 52.021,55.868 51.940,53.635 51.741 C 49.870 51.404,49.729 51.412,49.153 51.988 C 48.885 52.256,48.534 52.510,48.374 52.552 C 48.131 52.616,48.138 52.631,48.417 52.645 C 48.600 52.654,49.050 52.554,49.417 52.421 C 50.306 52.101,52.626 52.104,53.872 52.427 C 54.423 52.570,54.978 52.647,55.104 52.598 C 55.233 52.549,55.333 52.615,55.333 52.749 C 55.333 53.008,56.757 53.500,57.505 53.500 C 58.111 53.500,59.043 53.838,59.267 54.139 C 59.368 54.275,59.950 54.554,60.559 54.759 L 61.668 55.133 62.205 54.771 C 62.950 54.269,63.444 53.475,63.687 52.392 C 63.800 51.885,64.103 51.206,64.360 50.883 C 64.661 50.504,64.866 50.003,64.936 49.471 C 64.996 49.017,65.214 48.398,65.419 48.096 C 66.340 46.738,66.301 45.896,65.298 45.491 C 64.997 45.369,64.476 45.091,64.141 44.873 C 63.806 44.655,63.095 44.363,62.562 44.223 C 62.028 44.084,61.283 43.789,60.905 43.568 C 60.442 43.296,59.656 43.082,58.485 42.907 C 57.531 42.765,56.262 42.510,55.667 42.340 C 52.955 41.568,47.095 41.518,44.982 42.249 C 43.616 42.721,43.046 42.642,42.739 41.936 C 42.551 41.504,42.512 41.478,42.507 41.781 M83.210 50.670 C 83.044 51.091,82.817 51.368,82.598 51.415 C 81.911 51.562,79.702 51.826,77.000 52.085 C 73.964 52.376,72.669 52.746,72.367 53.410 C 72.117 53.957,72.061 59.492,72.301 59.939 C 72.404 60.132,72.435 60.343,72.369 60.409 C 72.304 60.475,72.236 61.216,72.219 62.056 C 72.201 62.896,72.159 64.521,72.126 65.667 C 72.092 66.813,72.000 70.131,71.922 73.040 C 71.804 77.432,71.742 78.299,71.557 78.145 C 71.434 78.043,71.333 78.020,71.333 78.095 C 71.333 78.169,71.223 78.085,71.089 77.907 C 70.954 77.729,70.842 77.642,70.839 77.714 C 70.836 77.786,70.665 77.755,70.458 77.645 C 70.131 77.471,70.110 77.478,70.290 77.696 C 70.404 77.834,70.444 78.001,70.379 78.066 C 70.313 78.131,70.401 78.130,70.574 78.064 C 70.791 77.981,70.851 78.003,70.769 78.136 C 70.688 78.267,70.743 78.294,70.935 78.220 C 71.152 78.137,71.187 78.168,71.079 78.347 C 70.964 78.536,70.998 78.534,71.249 78.333 C 71.534 78.106,71.552 78.110,71.450 78.384 C 71.382 78.564,71.403 78.643,71.502 78.582 C 71.593 78.526,71.667 78.635,71.667 78.823 C 71.667 79.012,71.587 79.167,71.490 79.167 C 71.393 79.167,71.359 79.093,71.415 79.002 C 71.476 78.904,71.401 78.882,71.231 78.947 C 71.039 79.021,70.984 78.994,71.065 78.864 C 71.145 78.733,71.091 78.706,70.898 78.780 C 70.705 78.854,70.651 78.827,70.731 78.697 C 70.812 78.567,70.757 78.540,70.565 78.614 C 70.406 78.674,70.321 78.655,70.373 78.570 C 70.425 78.486,70.269 78.405,70.026 78.391 C 69.698 78.373,69.865 78.512,70.667 78.925 C 72.026 79.626,71.932 79.642,71.972 78.708 C 71.991 78.273,72.042 77.729,72.085 77.500 C 72.197 76.910,72.640 71.132,72.756 68.750 C 72.810 67.650,72.932 66.037,73.028 65.167 C 73.186 63.734,73.361 60.964,73.334 60.333 C 73.328 60.196,73.281 58.689,73.229 56.985 L 73.136 53.886 73.693 53.623 C 74.149 53.407,75.073 53.352,78.811 53.313 C 83.901 53.262,83.833 53.246,83.833 54.430 C 83.833 54.723,83.974 55.137,84.147 55.350 L 84.460 55.737 85.069 55.202 C 85.404 54.907,85.778 54.667,85.900 54.667 C 86.021 54.667,86.391 54.452,86.722 54.189 C 87.410 53.642,87.820 53.472,89.333 53.102 C 89.929 52.956,90.829 52.717,91.333 52.570 C 92.582 52.206,95.003 52.194,96.167 52.546 C 96.671 52.698,97.792 53.020,98.659 53.262 C 99.525 53.504,100.469 53.880,100.756 54.099 C 101.043 54.318,101.512 54.544,101.799 54.602 C 102.333 54.708,103.534 55.681,104.739 56.982 C 106.275 58.643,106.500 58.911,106.500 59.087 C 106.500 59.188,106.717 59.479,106.982 59.733 C 107.248 59.987,107.558 60.529,107.673 60.938 C 107.787 61.346,108.085 61.938,108.336 62.253 C 108.711 62.726,108.827 63.112,108.995 64.455 C 109.238 66.395,109.447 66.952,110.151 67.545 C 110.442 67.790,110.788 68.274,110.920 68.620 L 111.159 69.250 111.057 68.583 C 111.001 68.217,110.822 67.652,110.660 67.329 C 110.498 67.006,110.309 66.369,110.241 65.913 C 110.173 65.457,110.021 64.933,109.903 64.750 C 109.785 64.567,109.569 63.896,109.423 63.259 C 109.276 62.622,108.983 61.872,108.772 61.592 C 108.560 61.312,108.251 60.723,108.084 60.283 C 107.918 59.843,107.647 59.388,107.482 59.273 C 107.317 59.157,107.111 58.880,107.024 58.656 C 106.569 57.485,103.516 54.270,102.686 54.088 C 102.352 54.014,102.094 53.830,102.007 53.603 C 101.814 53.094,101.516 52.882,100.808 52.749 C 100.216 52.639,100.203 52.621,100.349 52.111 C 100.432 51.822,100.500 51.537,100.500 51.477 C 100.500 51.417,99.881 51.319,99.125 51.259 C 95.589 50.977,92.662 50.604,91.750 50.318 C 90.900 50.051,90.203 50.004,87.112 50.002 L 83.473 50.000 83.210 50.670 M116.792 53.267 C 117.190 53.447,117.026 53.975,116.555 54.031 C 116.220 54.070,116.065 54.221,115.923 54.645 C 115.819 54.954,115.406 55.487,115.004 55.830 L 114.274 56.453 114.711 57.198 C 114.951 57.608,115.235 58.292,115.343 58.718 C 115.450 59.144,115.706 59.663,115.911 59.871 C 116.117 60.079,116.413 60.640,116.569 61.116 C 116.726 61.592,116.987 62.154,117.150 62.366 C 117.503 62.824,117.813 63.981,117.766 64.665 C 117.747 64.935,117.820 65.190,117.928 65.231 C 118.381 65.405,118.228 62.471,117.747 61.762 C 117.508 61.409,117.193 60.812,117.047 60.435 C 116.902 60.058,116.643 59.594,116.472 59.403 C 116.301 59.212,115.969 58.470,115.736 57.755 L 115.311 56.454 115.905 55.845 C 116.232 55.510,116.500 55.100,116.500 54.935 C 116.500 54.769,116.733 54.416,117.018 54.150 C 117.302 53.884,117.452 53.667,117.351 53.667 C 117.250 53.667,117.185 53.577,117.208 53.468 C 117.231 53.359,117.100 53.248,116.917 53.221 C 116.733 53.194,116.677 53.215,116.792 53.267 M52.295 58.093 C 52.454 58.311,52.649 58.492,52.729 58.495 C 52.809 58.498,52.796 58.406,52.701 58.292 C 52.606 58.177,52.541 58.015,52.556 57.933 C 52.571 57.850,52.454 57.763,52.295 57.740 C 52.023 57.699,52.023 57.718,52.295 58.093 M53.651 59.140 C 53.871 59.205,54.115 59.387,54.193 59.545 C 54.270 59.704,54.397 59.965,54.476 60.125 C 54.554 60.285,54.948 60.547,55.351 60.706 C 57.557 61.578,59.157 62.138,59.740 62.243 C 60.101 62.307,60.884 62.654,61.479 63.013 C 62.075 63.373,62.648 63.667,62.753 63.667 C 63.068 63.667,65.948 66.551,66.082 67.000 C 66.150 67.229,66.385 67.657,66.605 67.951 C 66.825 68.244,67.115 68.957,67.249 69.534 C 67.383 70.111,67.619 71.108,67.772 71.750 C 68.162 73.380,68.233 74.431,68.022 75.409 C 67.922 75.872,67.813 77.011,67.781 77.941 L 67.722 79.633 68.388 79.739 C 68.775 79.801,69.127 79.773,69.227 79.673 C 69.322 79.578,69.474 79.500,69.565 79.500 C 69.656 79.500,69.585 79.610,69.407 79.745 C 69.172 79.923,69.149 79.991,69.325 79.995 C 69.644 80.002,69.355 80.276,68.917 80.381 C 68.608 80.455,68.611 80.463,68.948 80.481 C 69.149 80.491,69.360 80.425,69.417 80.333 C 69.473 80.242,69.632 80.167,69.770 80.167 C 69.918 80.167,69.971 80.246,69.899 80.362 C 69.817 80.494,69.871 80.521,70.065 80.447 C 70.223 80.386,70.308 80.406,70.256 80.491 C 70.146 80.668,70.797 81.167,71.139 81.167 C 71.283 81.167,71.221 81.040,70.977 80.831 L 70.583 80.495 71.114 80.786 C 71.466 80.979,71.578 81.119,71.448 81.203 C 71.125 81.408,70.913 81.356,70.254 80.908 C 69.605 80.468,69.296 80.470,69.663 80.912 C 69.838 81.123,71.286 81.667,71.672 81.667 C 71.733 81.667,71.797 81.213,71.814 80.658 L 71.844 79.650 70.558 79.056 C 69.851 78.729,69.192 78.444,69.094 78.423 C 68.355 78.263,67.973 77.984,68.169 77.747 C 68.333 77.549,68.329 77.499,68.145 77.497 C 67.966 77.495,67.970 77.460,68.167 77.333 C 68.333 77.226,68.347 77.171,68.208 77.169 C 68.094 77.168,68.000 77.054,68.000 76.917 C 68.000 76.752,68.165 76.667,68.487 76.667 C 69.532 76.667,69.322 71.917,68.231 70.868 C 67.945 70.594,67.833 70.304,67.833 69.835 C 67.833 68.571,67.507 67.528,66.999 67.166 C 66.738 66.980,66.439 66.570,66.335 66.255 C 66.231 65.940,66.006 65.638,65.835 65.584 C 65.664 65.530,65.373 65.228,65.188 64.915 C 65.001 64.599,64.663 64.297,64.431 64.239 C 64.201 64.181,63.965 63.985,63.907 63.804 C 63.850 63.623,63.485 63.339,63.096 63.172 C 62.707 63.005,62.188 62.683,61.943 62.456 C 61.658 62.191,61.127 61.970,60.464 61.840 C 59.896 61.728,59.249 61.493,59.027 61.319 C 58.572 60.961,57.954 60.781,56.218 60.500 L 55.019 60.306 54.968 59.695 C 54.917 59.084,54.916 59.083,54.083 59.053 C 53.533 59.033,53.386 59.062,53.651 59.140 M89.516 61.920 C 89.021 62.059,88.421 62.281,88.183 62.414 C 87.945 62.547,87.402 62.814,86.977 63.009 C 86.099 63.410,85.456 64.288,84.845 65.917 C 84.639 66.467,84.398 67.098,84.309 67.320 C 83.886 68.378,84.477 72.241,85.294 73.758 C 85.641 74.402,87.265 75.980,87.973 76.361 C 88.370 76.575,88.933 76.881,89.223 77.041 C 90.133 77.544,93.102 77.459,93.916 76.906 C 94.262 76.671,94.826 76.367,95.168 76.230 C 95.693 76.020,97.279 74.461,97.720 73.722 C 97.784 73.615,97.990 72.828,98.179 71.972 C 98.937 68.544,98.917 68.783,98.536 67.635 C 98.343 67.057,98.114 66.172,98.025 65.668 C 97.922 65.082,97.756 64.693,97.564 64.585 C 97.399 64.492,97.073 64.204,96.840 63.945 C 95.200 62.118,91.981 61.228,89.516 61.920 M92.667 63.993 C 93.721 64.178,94.801 64.331,95.067 64.332 C 95.968 64.335,97.372 65.155,97.258 65.611 C 97.203 65.828,97.278 66.464,97.423 67.023 C 97.568 67.583,97.643 68.154,97.590 68.293 C 97.537 68.431,97.568 68.966,97.660 69.481 C 97.780 70.159,97.766 70.816,97.608 71.866 L 97.390 73.315 96.121 74.552 C 95.341 75.312,94.665 75.825,94.366 75.885 C 94.099 75.939,93.630 76.193,93.325 76.450 C 92.440 77.193,90.091 77.145,89.365 76.368 C 89.088 76.071,88.699 75.833,88.489 75.833 C 88.102 75.833,85.505 73.326,85.495 72.941 C 85.492 72.836,85.384 71.962,85.254 71.000 C 85.008 69.163,85.068 67.956,85.422 67.662 C 85.538 67.566,85.594 67.342,85.547 67.163 C 85.344 66.385,85.625 66.000,86.397 66.000 C 87.385 66.000,88.734 66.271,89.459 66.614 C 90.003 66.873,90.456 66.995,90.917 67.008 C 91.242 67.017,93.260 66.792,93.917 66.674 L 94.583 66.553 93.750 66.435 C 93.292 66.369,92.654 66.198,92.333 66.054 C 91.680 65.760,90.458 65.451,88.278 65.028 C 86.736 64.729,86.263 64.403,86.666 63.918 C 87.079 63.419,89.584 63.451,92.667 63.993 M49.000 71.564 C 49.000 71.722,49.119 71.791,49.323 71.752 C 49.500 71.718,49.734 71.797,49.843 71.928 C 50.060 72.190,50.411 72.261,50.257 72.012 C 50.204 71.926,50.228 71.815,50.310 71.764 C 50.392 71.714,50.440 71.890,50.418 72.156 C 50.385 72.535,50.435 72.622,50.647 72.556 C 50.893 72.480,50.893 72.493,50.652 72.695 C 50.258 73.025,50.449 73.323,51.282 73.681 C 52.241 74.092,52.796 74.092,51.917 73.681 C 50.880 73.197,50.555 72.912,50.891 72.783 C 51.048 72.723,51.146 72.756,51.123 72.863 C 51.069 73.112,51.948 73.610,52.667 73.738 L 53.250 73.842 52.750 73.585 C 52.475 73.444,52.388 73.367,52.556 73.415 C 53.534 73.690,54.167 73.704,54.167 73.452 C 54.167 72.968,53.965 72.667,53.640 72.667 C 53.428 72.667,53.254 72.490,53.138 72.156 C 53.020 71.819,52.879 71.677,52.721 71.738 C 52.590 71.788,52.520 71.769,52.566 71.694 C 52.612 71.620,51.899 71.547,50.980 71.532 C 50.061 71.517,49.240 71.462,49.155 71.409 C 49.070 71.357,49.000 71.426,49.000 71.564 M49.167 72.163 C 49.167 72.382,49.983 72.906,50.116 72.773 C 50.175 72.714,50.135 72.667,50.028 72.667 C 49.921 72.667,49.683 72.517,49.500 72.333 C 49.317 72.150,49.167 72.073,49.167 72.163 M53.093 73.954 C 52.823 74.023,52.861 74.075,53.319 74.268 C 53.909 74.516,54.167 74.456,54.167 74.073 C 54.167 73.834,53.748 73.788,53.093 73.954 M68.167 80.120 C 67.938 80.161,67.685 80.258,67.605 80.334 C 67.525 80.411,67.785 80.400,68.183 80.311 C 69.296 80.061,69.284 79.920,68.167 80.120 M85.667 86.060 C 85.667 86.763,86.656 87.693,87.364 87.655 C 87.485 87.648,87.254 87.497,86.851 87.318 C 86.448 87.139,86.161 86.950,86.213 86.898 C 86.266 86.845,86.772 87.025,87.339 87.297 L 88.370 87.792 87.539 87.752 C 87.082 87.730,86.474 87.595,86.188 87.452 C 85.901 87.309,85.667 87.257,85.667 87.336 C 85.667 87.551,85.898 87.658,86.951 87.933 C 87.477 88.070,88.027 88.290,88.173 88.423 C 88.477 88.698,90.251 89.340,90.651 89.320 C 90.797 89.313,90.702 89.229,90.440 89.134 C 89.879 88.929,88.524 88.172,88.715 88.169 C 88.787 88.168,89.125 88.307,89.465 88.479 C 90.374 88.937,91.065 89.092,90.276 88.660 C 89.924 88.467,89.673 88.271,89.720 88.225 C 89.766 88.178,89.980 88.252,90.194 88.389 C 90.947 88.870,91.956 89.076,92.286 88.816 C 92.557 88.604,92.563 88.610,92.355 88.875 C 92.193 89.081,92.183 89.167,92.323 89.167 C 92.431 89.167,92.475 89.238,92.421 89.326 C 92.258 89.590,93.174 90.072,94.074 90.197 C 94.858 90.305,94.843 90.309,93.865 90.255 C 92.758 90.193,91.462 89.567,91.885 89.298 C 91.994 89.229,92.008 89.172,91.917 89.172 C 91.013 89.172,91.687 90.091,92.776 90.343 C 95.132 90.890,96.660 89.590,94.917 88.522 C 94.608 88.332,94.614 88.325,95.000 88.426 C 95.229 88.485,95.510 88.653,95.625 88.799 C 95.809 89.033,95.833 89.021,95.833 88.699 C 95.833 88.498,95.754 88.333,95.657 88.333 C 95.560 88.333,95.527 88.258,95.583 88.167 C 95.706 87.967,95.663 87.964,92.955 87.961 C 91.785 87.959,90.789 87.896,90.742 87.820 C 90.694 87.744,90.553 87.721,90.427 87.769 C 90.275 87.827,90.160 87.684,90.085 87.339 L 89.971 86.821 88.777 86.844 C 88.121 86.857,87.377 86.787,87.125 86.688 C 86.873 86.589,86.667 86.553,86.667 86.608 C 86.667 86.663,86.557 86.616,86.422 86.504 C 86.287 86.393,86.184 86.252,86.192 86.192 C 86.232 85.885,86.142 85.693,85.917 85.606 C 85.726 85.533,85.667 85.640,85.667 86.060 M93.240 89.238 C 92.873 89.508,92.974 89.582,94.060 89.841 C 94.582 89.966,94.582 89.966,94.120 89.983 C 93.865 89.992,93.379 89.884,93.040 89.743 L 92.424 89.485 92.837 89.259 C 93.392 88.955,93.642 88.942,93.240 89.238 " stroke="none" fill="#a4c8dc" fill-rule="evenodd"></path></g></svg>