<?xml version="1.0" standalone="no"?>
<!DOCTYPE svg PUBLIC "-//W3C//DTD SVG 20010904//EN"
 "http://www.w3.org/TR/2001/REC-SVG-20010904/DTD/svg10.dtd">
<svg version="1.0" xmlns="http://www.w3.org/2000/svg"
 width="315.000000pt" height="93.000000pt" viewBox="0 0 315.000000 93.000000"
 preserveAspectRatio="xMidYMid meet">

<g transform="translate(0.000000,93.000000) scale(0.100000,-0.100000)"
fill="#000000" stroke="none">
<path d="M425 645 l-40 -14 38 6 c34 5 37 3 37 -19 0 -19 7 -27 35 -35 23 -8
35 -8 35 -1 0 6 7 7 18 3 89 -38 250 -61 273 -38 8 8 -3 9 -35 6 -25 -3 -74 0
-108 7 -69 13 -176 63 -185 85 -6 18 -15 18 -68 0z"/>
<path d="M855 491 c1 -49 9 -71 22 -58 4 4 1 13 -5 19 -17 17 -15 28 6 28 30
0 34 12 10 37 -12 13 -24 23 -27 23 -3 0 -6 -22 -6 -49z"/>
<path d="M430 495 c0 -5 49 -31 85 -45 42 -16 28 -2 -25 25 -50 25 -60 29 -60
20z"/>
</g>
</svg>
